<svg xmlns="http://www.w3.org/2000/svg" xmlns:xlink="http://www.w3.org/1999/xlink" width="1000" zoomAndPan="magnify" viewBox="0 0 750 374.999991" height="500" preserveAspectRatio="xMidYMid meet" version="1.0"><defs><g/><clipPath id="ce211b176d"><path d="M 17.617188 84.972656 L 212.617188 84.972656 L 212.617188 289.722656 L 17.617188 289.722656 Z M 17.617188 84.972656 " clip-rule="nonzero"/></clipPath></defs><g clip-path="url(#ce211b176d)"><path fill="#ffffff" d="M 50.671875 246.1875 C 53.542969 242.699219 57.5625 240.445312 61.746094 239.582031 C 57.316406 255.042969 59.203125 267.308594 64.863281 276.207031 C 36.566406 259.1875 17.660156 228.140625 17.660156 192.75 C 17.660156 140.5 58.792969 97.890625 110.464844 95.511719 C 103.371094 100.84375 93.199219 104.65625 87.789062 109.085938 C 77.617188 117.371094 78.929688 123.644531 79.132812 128.730469 C 73.105469 133.777344 70.03125 141.402344 70.6875 149.15625 C 66.257812 159.203125 58.667969 159.613281 58.628906 151.820312 C 52.683594 161.292969 51.492188 168.757812 53.625 179.09375 C 62.8125 182.742188 71.054688 182.824219 79.789062 180.40625 C 72.328125 179.09375 71.300781 172.121094 82.785156 172.367188 C 88.8125 172.488281 94.554688 173.515625 98.574219 168.390625 C 90.414062 167.898438 90.042969 160.226562 100.664062 159.449219 C 120.269531 158.011719 123.632812 143.289062 104.398438 142.921875 C 137.207031 129.960938 148.933594 146.449219 128.347656 167.527344 C 118.011719 178.066406 101.855469 186.515625 86.925781 196.605469 C 81.183594 196.398438 76.304688 194.429688 72.695312 190.042969 C 64.820312 196.972656 50.304688 198.820312 56.167969 187.539062 C 48.910156 187.007812 44.027344 189.550781 40.503906 193.773438 C 49.648438 192.011719 51 196.644531 55.554688 198.777344 C 52.3125 201.238281 47.226562 202.058594 44.191406 196.152344 C 38.738281 199.515625 36.074219 204.96875 35.582031 211.984375 C 43.003906 200.417969 48.417969 206.117188 54.324219 204.3125 C 52.230469 206.488281 49.566406 208.128906 45.875 208.824219 C 45.175781 215.550781 47.144531 219.324219 50.222656 221.867188 C 50.015625 207.757812 63.386719 201.773438 77.535156 203.492188 C 63.796875 214.117188 52.722656 227.238281 50.671875 246.1875 Z M 59.695312 171.628906 C 63.753906 165.519531 67.570312 165.683594 69.046875 167.324219 C 68.226562 156.863281 62.976562 158.957031 59.695312 171.628906 Z M 98.285156 110.769531 C 90.617188 113.96875 85.164062 120.078125 86.640625 129.019531 C 93.035156 112.449219 109.566406 112.613281 122.769531 105.519531 C 126.625 103.425781 130.644531 100.597656 134.210938 97.316406 C 129.042969 96.25 123.878906 95.675781 118.628906 95.472656 C 119.039062 92.148438 118.585938 89.195312 117.398438 86.570312 C 117.726562 89.976562 116.042969 93.09375 113.542969 95.964844 C 108.703125 101.253906 101.15625 105.929688 98.285156 110.769531 Z M 76.304688 149.03125 C 79.175781 146.898438 83.152344 147.390625 85.695312 145.339844 C 87.335938 144.027344 87.214844 140.542969 88.8125 138.984375 C 86.351562 140.953125 82.003906 140.417969 79.542969 142.386719 C 77.863281 143.78125 77.535156 146.941406 76.304688 149.03125 Z M 144.503906 99.941406 C 145.121094 94.160156 144.710938 89.113281 143.113281 84.972656 C 142.621094 90.34375 140.773438 94.691406 138.148438 98.425781 C 127.199219 113.433594 103.332031 117.617188 104.234375 135.085938 C 108.949219 130.863281 113.992188 126.804688 119.898438 123.277344 C 115.921875 124.464844 112.105469 125.984375 108.417969 127.828125 C 108.785156 126.515625 109.402344 125.285156 110.21875 124.136719 C 119.941406 118.519531 131.957031 115.28125 143.6875 116.183594 C 131.875 119.378906 132.488281 128.527344 146.0625 128.402344 C 156.113281 128.28125 165.460938 125.039062 175.347656 131.683594 C 166.117188 130.742188 158.53125 137.261719 170.792969 148.046875 C 179.855469 155.960938 187.773438 163.425781 182.277344 180.570312 C 178.625 169.085938 169.152344 167.980469 166.816406 183.808594 C 165.503906 192.625 165.011719 202.183594 155.414062 209.769531 C 156.726562 203.78125 156.03125 199.597656 152.257812 195.949219 C 161.441406 183.195312 165.378906 162.648438 154.429688 149.605469 C 160.992188 166.996094 154.511719 185.695312 143.113281 197.300781 C 132.203125 208.375 118.175781 217.109375 106.898438 227.8125 C 65.191406 267.265625 105.339844 288.960938 134.128906 265.011719 C 99.84375 280.59375 92.542969 257.339844 105.464844 244.054688 C 109.484375 256.480469 125.3125 250.65625 134.582031 243.808594 C 145.160156 235.976562 157.792969 218.136719 167.675781 209.03125 C 182.234375 195.703125 202.988281 199.433594 206.597656 225.886719 C 210.328125 215.550781 212.378906 204.394531 212.378906 192.789062 C 212.378906 150.304688 184.941406 112.859375 144.503906 99.941406 Z M 93.570312 221.578125 C 115.839844 199.023438 147.746094 190.453125 145.816406 159.203125 C 137.820312 190.207031 83.195312 203.65625 70.480469 230.847656 C 72.738281 229.945312 74.953125 229.414062 77.207031 229.125 C 67.199219 242.085938 69.046875 264.558594 83.6875 273.375 C 75.609375 263.289062 73.515625 241.878906 93.570312 221.578125 Z M 166.652344 238.433594 C 160.007812 251.148438 153.570312 262.960938 143.972656 273.664062 C 137.042969 281.414062 128.46875 286.828125 119.53125 290.027344 C 151.066406 288.589844 178.707031 272.105469 195.480469 247.621094 C 193.105469 243.765625 189.78125 242.496094 185.105469 245.242188 C 186.910156 239.296875 193.1875 236.222656 199.789062 240.691406 C 202.042969 242.167969 204.300781 244.546875 206.433594 247.992188 C 206.636719 243.273438 205.449219 238.269531 203.316406 233.84375 C 196.589844 220.0625 180.265625 212.394531 166.652344 238.433594 Z M 166.652344 238.433594 " fill-opacity="1" fill-rule="evenodd"/></g><g fill="#ffffff" fill-opacity="1"><g transform="translate(217.030138, 230.303577)"><g><path d="M 67.625 0 L 48.59375 0 L 48.59375 -28.5625 L 26.59375 -28.5625 L 26.59375 0 L 7.578125 0 L 7.578125 -70.078125 L 26.59375 -70.078125 L 26.59375 -44.09375 L 48.59375 -44.09375 L 48.59375 -70.078125 L 67.625 -70.078125 Z M 67.625 0 "/></g></g></g><g fill="#ffffff" fill-opacity="1"><g transform="translate(297.899775, 230.303577)"><g><path d="M 73.140625 -35.125 C 73.140625 -23.34375 70.242188 -14.382812 64.453125 -8.25 C 58.671875 -2.113281 50.207031 0.953125 39.0625 0.953125 C 28.070312 0.953125 19.644531 -2.128906 13.78125 -8.296875 C 7.914062 -14.460938 4.984375 -23.441406 4.984375 -35.234375 C 4.984375 -46.890625 7.898438 -55.789062 13.734375 -61.9375 C 19.566406 -68.09375 28.039062 -71.171875 39.15625 -71.171875 C 50.3125 -71.171875 58.765625 -68.117188 64.515625 -62.015625 C 70.265625 -55.910156 73.140625 -46.945312 73.140625 -35.125 Z M 24.921875 -35.125 C 24.921875 -21.582031 29.632812 -14.8125 39.0625 -14.8125 C 43.851562 -14.8125 47.40625 -16.457031 49.71875 -19.75 C 52.039062 -23.039062 53.203125 -28.164062 53.203125 -35.125 C 53.203125 -42.125 52.023438 -47.289062 49.671875 -50.625 C 47.328125 -53.96875 43.820312 -55.640625 39.15625 -55.640625 C 29.664062 -55.640625 24.921875 -48.800781 24.921875 -35.125 Z M 24.921875 -35.125 "/></g></g></g><g fill="#ffffff" fill-opacity="1"><g transform="translate(381.787919, 230.303577)"><g><path d="M 53.390625 -21.28125 C 53.390625 -16.9375 52.285156 -13.078125 50.078125 -9.703125 C 47.878906 -6.335938 44.703125 -3.71875 40.546875 -1.84375 C 36.390625 0.0195312 31.515625 0.953125 25.921875 0.953125 C 21.265625 0.953125 17.351562 0.628906 14.1875 -0.015625 C 11.019531 -0.671875 7.726562 -1.816406 4.3125 -3.453125 L 4.3125 -20.328125 C 7.925781 -18.472656 11.679688 -17.023438 15.578125 -15.984375 C 19.472656 -14.941406 23.050781 -14.421875 26.3125 -14.421875 C 29.125 -14.421875 31.179688 -14.90625 32.484375 -15.875 C 33.796875 -16.851562 34.453125 -18.113281 34.453125 -19.65625 C 34.453125 -20.613281 34.1875 -21.453125 33.65625 -22.171875 C 33.132812 -22.890625 32.289062 -23.613281 31.125 -24.34375 C 29.957031 -25.082031 26.851562 -26.585938 21.8125 -28.859375 C 17.238281 -30.929688 13.804688 -32.941406 11.515625 -34.890625 C 9.234375 -36.835938 7.539062 -39.070312 6.4375 -41.59375 C 5.34375 -44.125 4.796875 -47.113281 4.796875 -50.5625 C 4.796875 -57.019531 7.144531 -62.050781 11.84375 -65.65625 C 16.539062 -69.269531 22.992188 -71.078125 31.203125 -71.078125 C 38.453125 -71.078125 45.847656 -69.398438 53.390625 -66.046875 L 47.59375 -51.421875 C 41.039062 -54.429688 35.382812 -55.9375 30.625 -55.9375 C 28.164062 -55.9375 26.375 -55.503906 25.25 -54.640625 C 24.132812 -53.773438 23.578125 -52.703125 23.578125 -51.421875 C 23.578125 -50.046875 24.285156 -48.816406 25.703125 -47.734375 C 27.128906 -46.648438 30.988281 -44.671875 37.28125 -41.796875 C 43.320312 -39.078125 47.515625 -36.160156 49.859375 -33.046875 C 52.210938 -29.929688 53.390625 -26.007812 53.390625 -21.28125 Z M 53.390625 -21.28125 "/></g></g></g><g fill="#ffffff" fill-opacity="1"><g transform="translate(444.11529, 230.303577)"><g><path d="M 38.484375 0 L 19.546875 0 L 19.546875 -54.59375 L 2.4375 -54.59375 L 2.4375 -70.078125 L 55.546875 -70.078125 L 55.546875 -54.59375 L 38.484375 -54.59375 Z M 38.484375 0 "/></g></g></g><g fill="#ffffff" fill-opacity="1"><g transform="translate(507.784219, 230.303577)"><g><path d="M 7.578125 0 L 7.578125 -70.078125 L 26.59375 -70.078125 L 26.59375 0 Z M 7.578125 0 "/></g></g></g><g fill="#ffffff" fill-opacity="1"><g transform="translate(547.640471, 230.303577)"><g><path d="M 74.28125 0 L 49.46875 0 L 23.875 -49.359375 L 23.4375 -49.359375 C 24.039062 -41.597656 24.34375 -35.671875 24.34375 -31.578125 L 24.34375 0 L 7.578125 0 L 7.578125 -70.078125 L 32.296875 -70.078125 L 57.796875 -21.375 L 58.09375 -21.375 C 57.644531 -28.4375 57.421875 -34.109375 57.421875 -38.390625 L 57.421875 -70.078125 L 74.28125 -70.078125 Z M 74.28125 0 "/></g></g></g><g fill="#ffffff" fill-opacity="1"><g transform="translate(635.169989, 230.303577)"><g><path d="M 35.703125 -41.03125 L 65.953125 -41.03125 L 65.953125 -3.265625 C 57.734375 -0.453125 48.707031 0.953125 38.875 0.953125 C 28.070312 0.953125 19.722656 -2.175781 13.828125 -8.4375 C 7.929688 -14.695312 4.984375 -23.628906 4.984375 -35.234375 C 4.984375 -46.535156 8.207031 -55.332031 14.65625 -61.625 C 21.113281 -67.925781 30.160156 -71.078125 41.796875 -71.078125 C 46.203125 -71.078125 50.363281 -70.660156 54.28125 -69.828125 C 58.195312 -68.992188 61.609375 -67.941406 64.515625 -66.671875 L 58.515625 -51.8125 C 53.472656 -54.300781 47.929688 -55.546875 41.890625 -55.546875 C 36.359375 -55.546875 32.082031 -53.75 29.0625 -50.15625 C 26.050781 -46.5625 24.546875 -41.425781 24.546875 -34.75 C 24.546875 -28.195312 25.910156 -23.203125 28.640625 -19.765625 C 31.367188 -16.335938 35.304688 -14.625 40.453125 -14.625 C 43.265625 -14.625 45.851562 -14.894531 48.21875 -15.4375 L 48.21875 -26.40625 L 35.703125 -26.40625 Z M 35.703125 -41.03125 "/></g></g></g><g fill="#ffffff" fill-opacity="1"><g transform="translate(248.638607, 149.6542)"><g><path d="M 25.515625 -13.890625 C 25.515625 -9.441406 24.285156 -6.015625 21.828125 -3.609375 C 19.378906 -1.203125 15.9375 0 11.5 0 L 2.875 0 L 2.875 -26.65625 L 12.109375 -26.65625 C 16.390625 -26.65625 19.691406 -25.5625 22.015625 -23.375 C 24.347656 -21.1875 25.515625 -18.023438 25.515625 -13.890625 Z M 18.03125 -13.640625 C 18.03125 -16.078125 17.546875 -17.882812 16.578125 -19.0625 C 15.617188 -20.25 14.15625 -20.84375 12.1875 -20.84375 L 10.078125 -20.84375 L 10.078125 -5.90625 L 11.6875 -5.90625 C 13.875 -5.90625 15.476562 -6.539062 16.5 -7.8125 C 17.519531 -9.082031 18.03125 -11.023438 18.03125 -13.640625 Z M 18.03125 -13.640625 "/></g></g></g><g fill="#ffffff" fill-opacity="1"><g transform="translate(278.20738, 149.6542)"><g><path d="M 10.078125 -9.703125 L 10.078125 0 L 2.875 0 L 2.875 -26.65625 L 11.609375 -26.65625 C 18.859375 -26.65625 22.484375 -24.03125 22.484375 -18.78125 C 22.484375 -15.695312 20.972656 -13.304688 17.953125 -11.609375 L 25.734375 0 L 17.5625 0 L 11.90625 -9.703125 Z M 10.078125 -15.109375 L 11.4375 -15.109375 C 13.945312 -15.109375 15.203125 -16.222656 15.203125 -18.453125 C 15.203125 -20.285156 13.96875 -21.203125 11.5 -21.203125 L 10.078125 -21.203125 Z M 10.078125 -15.109375 "/></g></g></g><g fill="#ffffff" fill-opacity="1"><g transform="translate(305.643065, 149.6542)"><g><path d="M 19.234375 0 L 17.921875 -5 L 9.265625 -5 L 7.90625 0 L 0 0 L 8.703125 -26.765625 L 18.3125 -26.765625 L 27.109375 0 Z M 16.421875 -10.90625 L 15.28125 -15.28125 C 15.007812 -16.25 14.679688 -17.503906 14.296875 -19.046875 C 13.921875 -20.597656 13.671875 -21.707031 13.546875 -22.375 C 13.441406 -21.75 13.226562 -20.722656 12.90625 -19.296875 C 12.582031 -17.878906 11.867188 -15.082031 10.765625 -10.90625 Z M 16.421875 -10.90625 "/></g></g></g><g fill="#ffffff" fill-opacity="1"><g transform="translate(334.920134, 149.6542)"><g><path d="M 13.578125 -15.609375 L 25.09375 -15.609375 L 25.09375 -1.234375 C 21.96875 -0.171875 18.53125 0.359375 14.78125 0.359375 C 10.675781 0.359375 7.5 -0.828125 5.25 -3.203125 C 3.007812 -5.585938 1.890625 -8.988281 1.890625 -13.40625 C 1.890625 -17.707031 3.117188 -21.054688 5.578125 -23.453125 C 8.035156 -25.847656 11.476562 -27.046875 15.90625 -27.046875 C 17.582031 -27.046875 19.164062 -26.882812 20.65625 -26.5625 C 22.144531 -26.25 23.441406 -25.847656 24.546875 -25.359375 L 22.265625 -19.71875 C 20.347656 -20.664062 18.238281 -21.140625 15.9375 -21.140625 C 13.832031 -21.140625 12.207031 -20.453125 11.0625 -19.078125 C 9.914062 -17.710938 9.34375 -15.757812 9.34375 -13.21875 C 9.34375 -10.726562 9.859375 -8.828125 10.890625 -7.515625 C 11.929688 -6.210938 13.429688 -5.5625 15.390625 -5.5625 C 16.460938 -5.5625 17.445312 -5.664062 18.34375 -5.875 L 18.34375 -10.046875 L 13.578125 -10.046875 Z M 13.578125 -15.609375 "/></g></g></g><g fill="#ffffff" fill-opacity="1"><g transform="translate(364.725916, 149.6542)"><g><path d="M 27.828125 -13.359375 C 27.828125 -8.878906 26.722656 -5.472656 24.515625 -3.140625 C 22.316406 -0.804688 19.097656 0.359375 14.859375 0.359375 C 10.679688 0.359375 7.472656 -0.8125 5.234375 -3.15625 C 3.003906 -5.5 1.890625 -8.914062 1.890625 -13.40625 C 1.890625 -17.84375 3 -21.226562 5.21875 -23.5625 C 7.4375 -25.90625 10.660156 -27.078125 14.890625 -27.078125 C 19.140625 -27.078125 22.359375 -25.914062 24.546875 -23.59375 C 26.734375 -21.269531 27.828125 -17.859375 27.828125 -13.359375 Z M 9.484375 -13.359375 C 9.484375 -8.210938 11.273438 -5.640625 14.859375 -5.640625 C 16.679688 -5.640625 18.03125 -6.265625 18.90625 -7.515625 C 19.789062 -8.765625 20.234375 -10.710938 20.234375 -13.359375 C 20.234375 -16.023438 19.785156 -17.992188 18.890625 -19.265625 C 18.003906 -20.535156 16.671875 -21.171875 14.890625 -21.171875 C 11.285156 -21.171875 9.484375 -18.566406 9.484375 -13.359375 Z M 9.484375 -13.359375 "/></g></g></g><g fill="#ffffff" fill-opacity="1"><g transform="translate(396.646555, 149.6542)"><g><path d="M 28.265625 0 L 18.8125 0 L 9.078125 -18.78125 L 8.921875 -18.78125 C 9.148438 -15.820312 9.265625 -13.566406 9.265625 -12.015625 L 9.265625 0 L 2.875 0 L 2.875 -26.65625 L 12.296875 -26.65625 L 21.984375 -8.125 L 22.09375 -8.125 C 21.925781 -10.8125 21.84375 -12.972656 21.84375 -14.609375 L 21.84375 -26.65625 L 28.265625 -26.65625 Z M 28.265625 0 "/></g></g></g><g fill="#ffffff" fill-opacity="1"><g transform="translate(429.952789, 149.6542)"><g><path d="M 9.96875 0 L 2.875 0 L 2.875 -26.65625 L 18.640625 -26.65625 L 18.640625 -20.875 L 9.96875 -20.875 L 9.96875 -15.796875 L 17.953125 -15.796875 L 17.953125 -10.015625 L 9.96875 -10.015625 Z M 9.96875 0 "/></g></g></g><g fill="#ffffff" fill-opacity="1"><g transform="translate(452.247186, 149.6542)"><g><path d="M 27.828125 -13.359375 C 27.828125 -8.878906 26.722656 -5.472656 24.515625 -3.140625 C 22.316406 -0.804688 19.097656 0.359375 14.859375 0.359375 C 10.679688 0.359375 7.472656 -0.8125 5.234375 -3.15625 C 3.003906 -5.5 1.890625 -8.914062 1.890625 -13.40625 C 1.890625 -17.84375 3 -21.226562 5.21875 -23.5625 C 7.4375 -25.90625 10.660156 -27.078125 14.890625 -27.078125 C 19.140625 -27.078125 22.359375 -25.914062 24.546875 -23.59375 C 26.734375 -21.269531 27.828125 -17.859375 27.828125 -13.359375 Z M 9.484375 -13.359375 C 9.484375 -8.210938 11.273438 -5.640625 14.859375 -5.640625 C 16.679688 -5.640625 18.03125 -6.265625 18.90625 -7.515625 C 19.789062 -8.765625 20.234375 -10.710938 20.234375 -13.359375 C 20.234375 -16.023438 19.785156 -17.992188 18.890625 -19.265625 C 18.003906 -20.535156 16.671875 -21.171875 14.890625 -21.171875 C 11.285156 -21.171875 9.484375 -18.566406 9.484375 -13.359375 Z M 9.484375 -13.359375 "/></g></g></g><g fill="#ffffff" fill-opacity="1"><g transform="translate(484.167825, 149.6542)"><g><path d="M 10.078125 -9.703125 L 10.078125 0 L 2.875 0 L 2.875 -26.65625 L 11.609375 -26.65625 C 18.859375 -26.65625 22.484375 -24.03125 22.484375 -18.78125 C 22.484375 -15.695312 20.972656 -13.304688 17.953125 -11.609375 L 25.734375 0 L 17.5625 0 L 11.90625 -9.703125 Z M 10.078125 -15.109375 L 11.4375 -15.109375 C 13.945312 -15.109375 15.203125 -16.222656 15.203125 -18.453125 C 15.203125 -20.285156 13.96875 -21.203125 11.5 -21.203125 L 10.078125 -21.203125 Z M 10.078125 -15.109375 "/></g></g></g><g fill="#ffffff" fill-opacity="1"><g transform="translate(511.60351, 149.6542)"><g><path d="M 13.578125 -15.609375 L 25.09375 -15.609375 L 25.09375 -1.234375 C 21.96875 -0.171875 18.53125 0.359375 14.78125 0.359375 C 10.675781 0.359375 7.5 -0.828125 5.25 -3.203125 C 3.007812 -5.585938 1.890625 -8.988281 1.890625 -13.40625 C 1.890625 -17.707031 3.117188 -21.054688 5.578125 -23.453125 C 8.035156 -25.847656 11.476562 -27.046875 15.90625 -27.046875 C 17.582031 -27.046875 19.164062 -26.882812 20.65625 -26.5625 C 22.144531 -26.25 23.441406 -25.847656 24.546875 -25.359375 L 22.265625 -19.71875 C 20.347656 -20.664062 18.238281 -21.140625 15.9375 -21.140625 C 13.832031 -21.140625 12.207031 -20.453125 11.0625 -19.078125 C 9.914062 -17.710938 9.34375 -15.757812 9.34375 -13.21875 C 9.34375 -10.726562 9.859375 -8.828125 10.890625 -7.515625 C 11.929688 -6.210938 13.429688 -5.5625 15.390625 -5.5625 C 16.460938 -5.5625 17.445312 -5.664062 18.34375 -5.875 L 18.34375 -10.046875 L 13.578125 -10.046875 Z M 13.578125 -15.609375 "/></g></g></g><g fill="#ffffff" fill-opacity="1"><g transform="translate(541.409293, 149.6542)"><g><path d="M 18.703125 0 L 2.875 0 L 2.875 -26.65625 L 18.703125 -26.65625 L 18.703125 -20.875 L 10.078125 -20.875 L 10.078125 -16.6875 L 18.0625 -16.6875 L 18.0625 -10.90625 L 10.078125 -10.90625 L 10.078125 -5.875 L 18.703125 -5.875 Z M 18.703125 0 "/></g></g></g><g fill="#ffffff" fill-opacity="1"><g transform="translate(564.068321, 149.6542)"><g><path d="M 28.265625 0 L 18.8125 0 L 9.078125 -18.78125 L 8.921875 -18.78125 C 9.148438 -15.820312 9.265625 -13.566406 9.265625 -12.015625 L 9.265625 0 L 2.875 0 L 2.875 -26.65625 L 12.296875 -26.65625 L 21.984375 -8.125 L 22.09375 -8.125 C 21.925781 -10.8125 21.84375 -12.972656 21.84375 -14.609375 L 21.84375 -26.65625 L 28.265625 -26.65625 Z M 28.265625 0 "/></g></g></g><g fill="#ffffff" fill-opacity="1"><g transform="translate(597.374555, 149.6542)"><g><path d="M 18.703125 0 L 2.875 0 L 2.875 -26.65625 L 18.703125 -26.65625 L 18.703125 -20.875 L 10.078125 -20.875 L 10.078125 -16.6875 L 18.0625 -16.6875 L 18.0625 -10.90625 L 10.078125 -10.90625 L 10.078125 -5.875 L 18.703125 -5.875 Z M 18.703125 0 "/></g></g></g><g fill="#ffffff" fill-opacity="1"><g transform="translate(620.033583, 149.6542)"><g><path d="M 26.890625 0 L 18.5625 0 L 13.359375 -8.328125 L 8.21875 0 L 0.078125 0 L 8.921875 -13.640625 L 0.609375 -26.65625 L 8.59375 -26.65625 L 13.40625 -18.421875 L 18.03125 -26.65625 L 26.25 -26.65625 L 17.8125 -13.078125 Z M 26.890625 0 "/></g></g></g><g fill="#ffffff" fill-opacity="1"><g transform="translate(649.201262, 149.6542)"><g><path d="M 25.546875 -26.65625 L 25.546875 -10.609375 C 25.546875 -7.117188 24.554688 -4.414062 22.578125 -2.5 C 20.609375 -0.59375 17.765625 0.359375 14.046875 0.359375 C 10.410156 0.359375 7.613281 -0.566406 5.65625 -2.421875 C 3.707031 -4.285156 2.734375 -6.960938 2.734375 -10.453125 L 2.734375 -26.65625 L 9.96875 -26.65625 L 9.96875 -11.015625 C 9.96875 -9.128906 10.320312 -7.757812 11.03125 -6.90625 C 11.738281 -6.0625 12.78125 -5.640625 14.15625 -5.640625 C 15.625 -5.640625 16.6875 -6.0625 17.34375 -6.90625 C 18.007812 -7.75 18.34375 -9.128906 18.34375 -11.046875 L 18.34375 -26.65625 Z M 25.546875 -26.65625 "/></g></g></g><g fill="#ffffff" fill-opacity="1"><g transform="translate(679.626942, 149.6542)"><g><path d="M 20.3125 -8.09375 C 20.3125 -6.4375 19.890625 -4.96875 19.046875 -3.6875 C 18.210938 -2.40625 17.003906 -1.410156 15.421875 -0.703125 C 13.847656 0.00390625 11.992188 0.359375 9.859375 0.359375 C 8.085938 0.359375 6.597656 0.234375 5.390625 -0.015625 C 4.191406 -0.265625 2.941406 -0.695312 1.640625 -1.3125 L 1.640625 -7.734375 C 3.015625 -7.023438 4.441406 -6.472656 5.921875 -6.078125 C 7.410156 -5.679688 8.773438 -5.484375 10.015625 -5.484375 C 11.078125 -5.484375 11.859375 -5.664062 12.359375 -6.03125 C 12.859375 -6.40625 13.109375 -6.882812 13.109375 -7.46875 C 13.109375 -7.832031 13.007812 -8.148438 12.8125 -8.421875 C 12.613281 -8.703125 12.289062 -8.984375 11.84375 -9.265625 C 11.394531 -9.546875 10.210938 -10.117188 8.296875 -10.984375 C 6.554688 -11.765625 5.25 -12.523438 4.375 -13.265625 C 3.507812 -14.015625 2.867188 -14.867188 2.453125 -15.828125 C 2.035156 -16.785156 1.828125 -17.921875 1.828125 -19.234375 C 1.828125 -21.691406 2.71875 -23.609375 4.5 -24.984375 C 6.289062 -26.359375 8.75 -27.046875 11.875 -27.046875 C 14.632812 -27.046875 17.445312 -26.40625 20.3125 -25.125 L 18.109375 -19.5625 C 15.617188 -20.707031 13.46875 -21.28125 11.65625 -21.28125 C 10.71875 -21.28125 10.035156 -21.113281 9.609375 -20.78125 C 9.179688 -20.457031 8.96875 -20.050781 8.96875 -19.5625 C 8.96875 -19.039062 9.238281 -18.570312 9.78125 -18.15625 C 10.320312 -17.75 11.789062 -17 14.1875 -15.90625 C 16.476562 -14.863281 18.070312 -13.75 18.96875 -12.5625 C 19.863281 -11.382812 20.3125 -9.894531 20.3125 -8.09375 Z M 20.3125 -8.09375 "/></g></g></g></svg>