<svg xmlns="http://www.w3.org/2000/svg" xmlns:xlink="http://www.w3.org/1999/xlink" width="500" zoomAndPan="magnify" viewBox="0 0 375 374.999991" height="500" preserveAspectRatio="xMidYMid meet" version="1.0"><defs><g/><clipPath id="b78d8cfd6b"><path d="M 88.898438 150.367188 L 202.898438 150.367188 L 202.898438 270.367188 L 88.898438 270.367188 Z M 88.898438 150.367188 " clip-rule="nonzero"/></clipPath></defs><rect x="-37.5" width="450" fill="#ffffff" y="-37.499999" height="449.999989" fill-opacity="1"/><rect x="-37.5" width="450" fill="#5b21b6" y="-37.499999" height="449.999989" fill-opacity="1"/><g clip-path="url(#b78d8cfd6b)"><path fill="#ffffff" d="M 108.242188 244.710938 C 109.921875 242.671875 112.277344 241.351562 114.722656 240.847656 C 112.132812 249.894531 113.234375 257.070312 116.546875 262.277344 C 99.988281 252.316406 88.921875 234.148438 88.921875 213.4375 C 88.921875 182.863281 112.996094 157.925781 143.234375 156.535156 C 139.085938 159.652344 133.132812 161.886719 129.964844 164.476562 C 124.011719 169.324219 124.78125 173 124.898438 175.972656 C 121.371094 178.925781 119.570312 183.390625 119.957031 187.925781 C 117.363281 193.804688 112.925781 194.046875 112.898438 189.484375 C 109.417969 195.03125 108.722656 199.398438 109.972656 205.445312 C 115.347656 207.582031 120.171875 207.628906 125.285156 206.214844 C 120.914062 205.445312 120.316406 201.367188 127.035156 201.511719 C 130.5625 201.582031 133.925781 202.183594 136.277344 199.183594 C 131.5 198.894531 131.285156 194.40625 137.5 193.949219 C 148.972656 193.109375 150.941406 184.492188 139.683594 184.277344 C 158.882812 176.695312 165.75 186.34375 153.699219 198.679688 C 147.652344 204.847656 138.195312 209.789062 129.460938 215.695312 C 126.101562 215.574219 123.242188 214.421875 121.132812 211.855469 C 116.523438 215.910156 108.027344 216.988281 111.460938 210.390625 C 107.210938 210.078125 104.355469 211.566406 102.292969 214.039062 C 107.644531 213.007812 108.4375 215.71875 111.101562 216.964844 C 109.203125 218.40625 106.226562 218.886719 104.453125 215.429688 C 101.257812 217.398438 99.699219 220.589844 99.410156 224.695312 C 103.753906 217.925781 106.921875 221.261719 110.378906 220.207031 C 109.15625 221.476562 107.597656 222.4375 105.4375 222.847656 C 105.027344 226.78125 106.179688 228.988281 107.980469 230.476562 C 107.859375 222.222656 115.683594 218.71875 123.964844 219.726562 C 115.925781 225.941406 109.445312 233.621094 108.242188 244.710938 Z M 113.523438 201.078125 C 115.898438 197.503906 118.132812 197.597656 118.996094 198.558594 C 118.515625 192.4375 115.445312 193.660156 113.523438 201.078125 Z M 136.109375 165.460938 C 131.621094 167.335938 128.429688 170.910156 129.292969 176.140625 C 133.035156 166.445312 142.707031 166.542969 150.4375 162.390625 C 152.691406 161.167969 155.042969 159.511719 157.132812 157.589844 C 154.109375 156.964844 151.085938 156.628906 148.011719 156.511719 C 148.253906 154.566406 147.988281 152.839844 147.292969 151.300781 C 147.484375 153.292969 146.5 155.117188 145.035156 156.796875 C 142.203125 159.894531 137.789062 162.628906 136.109375 165.460938 Z M 123.242188 187.855469 C 124.925781 186.605469 127.253906 186.894531 128.738281 185.695312 C 129.699219 184.925781 129.628906 182.886719 130.5625 181.972656 C 129.125 183.125 126.578125 182.8125 125.140625 183.964844 C 124.15625 184.78125 123.964844 186.628906 123.242188 187.855469 Z M 163.15625 159.125 C 163.515625 155.742188 163.277344 152.789062 162.339844 150.367188 C 162.050781 153.511719 160.972656 156.054688 159.4375 158.238281 C 153.027344 167.023438 139.058594 169.46875 139.589844 179.695312 C 142.347656 177.222656 145.300781 174.847656 148.757812 172.78125 C 146.429688 173.476562 144.195312 174.367188 142.035156 175.445312 C 142.253906 174.679688 142.613281 173.957031 143.09375 173.285156 C 148.78125 170 155.8125 168.101562 162.675781 168.628906 C 155.765625 170.503906 156.125 175.855469 164.070312 175.78125 C 169.949219 175.710938 175.421875 173.8125 181.203125 177.703125 C 175.804688 177.148438 171.363281 180.964844 178.539062 187.277344 C 183.84375 191.910156 188.476562 196.277344 185.261719 206.308594 C 183.125 199.589844 177.582031 198.941406 176.210938 208.207031 C 175.445312 213.367188 175.15625 218.957031 169.539062 223.398438 C 170.308594 219.894531 169.902344 217.445312 167.691406 215.308594 C 173.070312 207.847656 175.371094 195.820312 168.964844 188.191406 C 172.804688 198.367188 169.011719 209.308594 162.339844 216.101562 C 155.957031 222.582031 147.75 227.695312 141.148438 233.957031 C 116.738281 257.046875 140.234375 269.742188 157.085938 255.726562 C 137.019531 264.847656 132.75 251.238281 140.308594 243.460938 C 142.660156 250.734375 151.925781 247.324219 157.347656 243.316406 C 163.539062 238.734375 170.933594 228.292969 176.71875 222.964844 C 185.238281 215.167969 197.382812 217.351562 199.492188 232.828125 C 201.675781 226.78125 202.878906 220.253906 202.878906 213.460938 C 202.878906 188.597656 186.820312 166.6875 163.15625 159.125 Z M 133.347656 230.308594 C 146.378906 217.109375 165.050781 212.09375 163.925781 193.804688 C 159.246094 211.949219 127.277344 219.820312 119.835938 235.734375 C 121.15625 235.207031 122.453125 234.894531 123.773438 234.726562 C 117.914062 242.308594 118.996094 255.460938 127.5625 260.621094 C 122.835938 254.71875 121.613281 242.191406 133.347656 230.308594 Z M 176.117188 240.175781 C 172.230469 247.613281 168.460938 254.527344 162.84375 260.789062 C 158.789062 265.324219 153.773438 268.492188 148.539062 270.367188 C 166.996094 269.527344 183.171875 259.878906 192.988281 245.550781 C 191.597656 243.292969 189.652344 242.550781 186.917969 244.15625 C 187.972656 240.679688 191.644531 238.878906 195.507812 241.492188 C 196.828125 242.359375 198.148438 243.75 199.398438 245.765625 C 199.515625 243.007812 198.820312 240.078125 197.574219 237.484375 C 193.636719 229.421875 184.085938 224.933594 176.117188 240.175781 Z M 176.117188 240.175781 " fill-opacity="1" fill-rule="evenodd"/></g><g fill="#ffffff" fill-opacity="1"><g transform="translate(-1.313623, 258.040249)"><g><path d="M 49.703125 -71.21875 C 43.929688 -71.21875 39.425781 -68.847656 36.1875 -64.109375 C 32.957031 -59.378906 31.34375 -52.859375 31.34375 -44.546875 C 31.34375 -27.265625 37.914062 -18.625 51.0625 -18.625 C 55.03125 -18.625 58.878906 -19.175781 62.609375 -20.28125 C 66.335938 -21.382812 70.085938 -22.710938 73.859375 -24.265625 L 73.859375 -3.75 C 66.359375 -0.425781 57.878906 1.234375 48.421875 1.234375 C 34.859375 1.234375 24.460938 -2.695312 17.234375 -10.5625 C 10.003906 -18.425781 6.390625 -29.796875 6.390625 -44.671875 C 6.390625 -53.972656 8.140625 -62.144531 11.640625 -69.1875 C 15.140625 -76.238281 20.175781 -81.65625 26.75 -85.4375 C 33.332031 -89.226562 41.066406 -91.125 49.953125 -91.125 C 59.660156 -91.125 68.941406 -89.015625 77.796875 -84.796875 L 70.359375 -65.6875 C 67.035156 -67.238281 63.710938 -68.546875 60.390625 -69.609375 C 57.078125 -70.679688 53.515625 -71.21875 49.703125 -71.21875 Z M 49.703125 -71.21875 "/></g></g></g><g fill="#ffffff" fill-opacity="1"><g transform="translate(87.645395, 258.040249)"><g/></g></g><g fill="#ffffff" fill-opacity="1"><g transform="translate(127.627774, 258.040249)"><g/></g></g><g fill="#ffffff" fill-opacity="1"><g transform="translate(167.610153, 258.040249)"><g/></g></g><g fill="#ffffff" fill-opacity="1"><g transform="translate(207.603236, 258.040249)"><g><path d="M 85.96875 -46.828125 C 85.96875 -31.828125 81.835938 -20.269531 73.578125 -12.15625 C 65.328125 -4.050781 53.722656 0 38.765625 0 L 9.703125 0 L 9.703125 -89.828125 L 40.796875 -89.828125 C 55.222656 -89.828125 66.359375 -86.140625 74.203125 -78.765625 C 82.046875 -71.398438 85.96875 -60.753906 85.96875 -46.828125 Z M 60.765625 -45.96875 C 60.765625 -54.195312 59.132812 -60.296875 55.875 -64.265625 C 52.625 -68.242188 47.679688 -70.234375 41.046875 -70.234375 L 33.984375 -70.234375 L 33.984375 -19.90625 L 39.390625 -19.90625 C 46.765625 -19.90625 52.171875 -22.046875 55.609375 -26.328125 C 59.046875 -30.609375 60.765625 -37.15625 60.765625 -45.96875 Z M 60.765625 -45.96875 "/></g></g></g><g fill="#ffffff" fill-opacity="1"><g transform="translate(307.239413, 258.040249)"><g><path d="M 63.046875 0 L 9.703125 0 L 9.703125 -89.828125 L 63.046875 -89.828125 L 63.046875 -70.359375 L 33.984375 -70.359375 L 33.984375 -56.21875 L 60.890625 -56.21875 L 60.890625 -36.75 L 33.984375 -36.75 L 33.984375 -19.78125 L 63.046875 -19.78125 Z M 63.046875 0 "/></g></g></g><g fill="#ffffff" fill-opacity="1"><g transform="translate(1.232548, 142.634559)"><g><path d="M 12.46875 -6.796875 C 12.46875 -4.617188 11.867188 -2.941406 10.671875 -1.765625 C 9.472656 -0.585938 7.789062 0 5.625 0 L 1.40625 0 L 1.40625 -13.03125 L 5.921875 -13.03125 C 8.003906 -13.03125 9.613281 -12.492188 10.75 -11.421875 C 11.894531 -10.347656 12.46875 -8.804688 12.46875 -6.796875 Z M 8.8125 -6.671875 C 8.8125 -7.859375 8.570312 -8.738281 8.09375 -9.3125 C 7.625 -9.894531 6.910156 -10.1875 5.953125 -10.1875 L 4.921875 -10.1875 L 4.921875 -2.890625 L 5.71875 -2.890625 C 6.78125 -2.890625 7.5625 -3.195312 8.0625 -3.8125 C 8.5625 -4.4375 8.8125 -5.390625 8.8125 -6.671875 Z M 8.8125 -6.671875 "/></g></g></g><g fill="#ffffff" fill-opacity="1"><g transform="translate(15.674686, 142.634559)"><g><path d="M 4.921875 -4.734375 L 4.921875 0 L 1.40625 0 L 1.40625 -13.03125 L 5.671875 -13.03125 C 9.210938 -13.03125 10.984375 -11.742188 10.984375 -9.171875 C 10.984375 -7.671875 10.25 -6.503906 8.78125 -5.671875 L 12.578125 0 L 8.578125 0 L 5.8125 -4.734375 Z M 4.921875 -7.390625 L 5.59375 -7.390625 C 6.820312 -7.390625 7.4375 -7.929688 7.4375 -9.015625 C 7.4375 -9.910156 6.832031 -10.359375 5.625 -10.359375 L 4.921875 -10.359375 Z M 4.921875 -7.390625 "/></g></g></g><g fill="#ffffff" fill-opacity="1"><g transform="translate(29.074957, 142.634559)"><g><path d="M 9.40625 0 L 8.765625 -2.4375 L 4.53125 -2.4375 L 3.875 0 L 0 0 L 4.25 -13.078125 L 8.953125 -13.078125 L 13.25 0 Z M 8.03125 -5.328125 L 7.46875 -7.46875 C 7.332031 -7.945312 7.171875 -8.5625 6.984375 -9.3125 C 6.796875 -10.0625 6.675781 -10.601562 6.625 -10.9375 C 6.570312 -10.632812 6.460938 -10.132812 6.296875 -9.4375 C 6.140625 -8.738281 5.789062 -7.367188 5.25 -5.328125 Z M 8.03125 -5.328125 "/></g></g></g><g fill="#ffffff" fill-opacity="1"><g transform="translate(43.374618, 142.634559)"><g><path d="M 6.640625 -7.625 L 12.265625 -7.625 L 12.265625 -0.609375 C 10.734375 -0.0859375 9.054688 0.171875 7.234375 0.171875 C 5.222656 0.171875 3.664062 -0.40625 2.5625 -1.5625 C 1.46875 -2.726562 0.921875 -4.390625 0.921875 -6.546875 C 0.921875 -8.648438 1.519531 -10.285156 2.71875 -11.453125 C 3.925781 -12.628906 5.609375 -13.21875 7.765625 -13.21875 C 8.585938 -13.21875 9.363281 -13.140625 10.09375 -12.984375 C 10.820312 -12.828125 11.457031 -12.628906 12 -12.390625 L 10.875 -9.640625 C 9.9375 -10.097656 8.90625 -10.328125 7.78125 -10.328125 C 6.757812 -10.328125 5.96875 -9.992188 5.40625 -9.328125 C 4.84375 -8.660156 4.5625 -7.703125 4.5625 -6.453125 C 4.5625 -5.242188 4.816406 -4.316406 5.328125 -3.671875 C 5.835938 -3.035156 6.566406 -2.71875 7.515625 -2.71875 C 8.046875 -2.71875 8.53125 -2.769531 8.96875 -2.875 L 8.96875 -4.90625 L 6.640625 -4.90625 Z M 6.640625 -7.625 "/></g></g></g><g fill="#ffffff" fill-opacity="1"><g transform="translate(57.932511, 142.634559)"><g><path d="M 13.59375 -6.53125 C 13.59375 -4.34375 13.054688 -2.675781 11.984375 -1.53125 C 10.910156 -0.394531 9.335938 0.171875 7.265625 0.171875 C 5.222656 0.171875 3.65625 -0.398438 2.5625 -1.546875 C 1.46875 -2.691406 0.921875 -4.359375 0.921875 -6.546875 C 0.921875 -8.710938 1.460938 -10.367188 2.546875 -11.515625 C 3.628906 -12.660156 5.207031 -13.234375 7.28125 -13.234375 C 9.351562 -13.234375 10.921875 -12.664062 11.984375 -11.53125 C 13.054688 -10.394531 13.59375 -8.726562 13.59375 -6.53125 Z M 4.640625 -6.53125 C 4.640625 -4.007812 5.515625 -2.75 7.265625 -2.75 C 8.148438 -2.75 8.804688 -3.054688 9.234375 -3.671875 C 9.671875 -4.285156 9.890625 -5.238281 9.890625 -6.53125 C 9.890625 -7.832031 9.671875 -8.789062 9.234375 -9.40625 C 8.796875 -10.03125 8.144531 -10.34375 7.28125 -10.34375 C 5.519531 -10.34375 4.640625 -9.070312 4.640625 -6.53125 Z M 4.640625 -6.53125 "/></g></g></g><g fill="#ffffff" fill-opacity="1"><g transform="translate(73.523356, 142.634559)"><g><path d="M 13.8125 0 L 9.203125 0 L 4.4375 -9.171875 L 4.359375 -9.171875 C 4.472656 -7.734375 4.53125 -6.632812 4.53125 -5.875 L 4.53125 0 L 1.40625 0 L 1.40625 -13.03125 L 6 -13.03125 L 10.75 -3.96875 L 10.796875 -3.96875 C 10.710938 -5.28125 10.671875 -6.335938 10.671875 -7.140625 L 10.671875 -13.03125 L 13.8125 -13.03125 Z M 13.8125 0 "/></g></g></g><g fill="#ffffff" fill-opacity="1"><g transform="translate(89.790966, 142.634559)"><g><path d="M 4.875 0 L 1.40625 0 L 1.40625 -13.03125 L 9.109375 -13.03125 L 9.109375 -10.203125 L 4.875 -10.203125 L 4.875 -7.71875 L 8.78125 -7.71875 L 8.78125 -4.890625 L 4.875 -4.890625 Z M 4.875 0 "/></g></g></g><g fill="#ffffff" fill-opacity="1"><g transform="translate(100.680083, 142.634559)"><g><path d="M 13.59375 -6.53125 C 13.59375 -4.34375 13.054688 -2.675781 11.984375 -1.53125 C 10.910156 -0.394531 9.335938 0.171875 7.265625 0.171875 C 5.222656 0.171875 3.65625 -0.398438 2.5625 -1.546875 C 1.46875 -2.691406 0.921875 -4.359375 0.921875 -6.546875 C 0.921875 -8.710938 1.460938 -10.367188 2.546875 -11.515625 C 3.628906 -12.660156 5.207031 -13.234375 7.28125 -13.234375 C 9.351562 -13.234375 10.921875 -12.664062 11.984375 -11.53125 C 13.054688 -10.394531 13.59375 -8.726562 13.59375 -6.53125 Z M 4.640625 -6.53125 C 4.640625 -4.007812 5.515625 -2.75 7.265625 -2.75 C 8.148438 -2.75 8.804688 -3.054688 9.234375 -3.671875 C 9.671875 -4.285156 9.890625 -5.238281 9.890625 -6.53125 C 9.890625 -7.832031 9.671875 -8.789062 9.234375 -9.40625 C 8.796875 -10.03125 8.144531 -10.34375 7.28125 -10.34375 C 5.519531 -10.34375 4.640625 -9.070312 4.640625 -6.53125 Z M 4.640625 -6.53125 "/></g></g></g><g fill="#ffffff" fill-opacity="1"><g transform="translate(116.270928, 142.634559)"><g><path d="M 4.921875 -4.734375 L 4.921875 0 L 1.40625 0 L 1.40625 -13.03125 L 5.671875 -13.03125 C 9.210938 -13.03125 10.984375 -11.742188 10.984375 -9.171875 C 10.984375 -7.671875 10.25 -6.503906 8.78125 -5.671875 L 12.578125 0 L 8.578125 0 L 5.8125 -4.734375 Z M 4.921875 -7.390625 L 5.59375 -7.390625 C 6.820312 -7.390625 7.4375 -7.929688 7.4375 -9.015625 C 7.4375 -9.910156 6.832031 -10.359375 5.625 -10.359375 L 4.921875 -10.359375 Z M 4.921875 -7.390625 "/></g></g></g><g fill="#ffffff" fill-opacity="1"><g transform="translate(129.671195, 142.634559)"><g><path d="M 6.640625 -7.625 L 12.265625 -7.625 L 12.265625 -0.609375 C 10.734375 -0.0859375 9.054688 0.171875 7.234375 0.171875 C 5.222656 0.171875 3.664062 -0.40625 2.5625 -1.5625 C 1.46875 -2.726562 0.921875 -4.390625 0.921875 -6.546875 C 0.921875 -8.648438 1.519531 -10.285156 2.71875 -11.453125 C 3.925781 -12.628906 5.609375 -13.21875 7.765625 -13.21875 C 8.585938 -13.21875 9.363281 -13.140625 10.09375 -12.984375 C 10.820312 -12.828125 11.457031 -12.628906 12 -12.390625 L 10.875 -9.640625 C 9.9375 -10.097656 8.90625 -10.328125 7.78125 -10.328125 C 6.757812 -10.328125 5.96875 -9.992188 5.40625 -9.328125 C 4.84375 -8.660156 4.5625 -7.703125 4.5625 -6.453125 C 4.5625 -5.242188 4.816406 -4.316406 5.328125 -3.671875 C 5.835938 -3.035156 6.566406 -2.71875 7.515625 -2.71875 C 8.046875 -2.71875 8.53125 -2.769531 8.96875 -2.875 L 8.96875 -4.90625 L 6.640625 -4.90625 Z M 6.640625 -7.625 "/></g></g></g><g fill="#ffffff" fill-opacity="1"><g transform="translate(144.229085, 142.634559)"><g><path d="M 9.140625 0 L 1.40625 0 L 1.40625 -13.03125 L 9.140625 -13.03125 L 9.140625 -10.203125 L 4.921875 -10.203125 L 4.921875 -8.15625 L 8.828125 -8.15625 L 8.828125 -5.328125 L 4.921875 -5.328125 L 4.921875 -2.875 L 9.140625 -2.875 Z M 9.140625 0 "/></g></g></g><g fill="#ffffff" fill-opacity="1"><g transform="translate(155.296298, 142.634559)"><g><path d="M 13.8125 0 L 9.203125 0 L 4.4375 -9.171875 L 4.359375 -9.171875 C 4.472656 -7.734375 4.53125 -6.632812 4.53125 -5.875 L 4.53125 0 L 1.40625 0 L 1.40625 -13.03125 L 6 -13.03125 L 10.75 -3.96875 L 10.796875 -3.96875 C 10.710938 -5.28125 10.671875 -6.335938 10.671875 -7.140625 L 10.671875 -13.03125 L 13.8125 -13.03125 Z M 13.8125 0 "/></g></g></g><g fill="#ffffff" fill-opacity="1"><g transform="translate(171.563907, 142.634559)"><g><path d="M 9.140625 0 L 1.40625 0 L 1.40625 -13.03125 L 9.140625 -13.03125 L 9.140625 -10.203125 L 4.921875 -10.203125 L 4.921875 -8.15625 L 8.828125 -8.15625 L 8.828125 -5.328125 L 4.921875 -5.328125 L 4.921875 -2.875 L 9.140625 -2.875 Z M 9.140625 0 "/></g></g></g><g fill="#ffffff" fill-opacity="1"><g transform="translate(182.63112, 142.634559)"><g><path d="M 13.140625 0 L 9.078125 0 L 6.53125 -4.078125 L 4.015625 0 L 0.03125 0 L 4.359375 -6.671875 L 0.296875 -13.03125 L 4.203125 -13.03125 L 6.546875 -9 L 8.8125 -13.03125 L 12.828125 -13.03125 L 8.703125 -6.390625 Z M 13.140625 0 "/></g></g></g><g fill="#ffffff" fill-opacity="1"><g transform="translate(196.877349, 142.634559)"><g><path d="M 12.484375 -13.03125 L 12.484375 -5.1875 C 12.484375 -3.476562 12 -2.15625 11.03125 -1.21875 C 10.070312 -0.289062 8.679688 0.171875 6.859375 0.171875 C 5.085938 0.171875 3.722656 -0.28125 2.765625 -1.1875 C 1.816406 -2.09375 1.34375 -3.398438 1.34375 -5.109375 L 1.34375 -13.03125 L 4.875 -13.03125 L 4.875 -5.375 C 4.875 -4.457031 5.046875 -3.789062 5.390625 -3.375 C 5.734375 -2.957031 6.242188 -2.75 6.921875 -2.75 C 7.640625 -2.75 8.160156 -2.957031 8.484375 -3.375 C 8.804688 -3.789062 8.96875 -4.46875 8.96875 -5.40625 L 8.96875 -13.03125 Z M 12.484375 -13.03125 "/></g></g></g><g fill="#ffffff" fill-opacity="1"><g transform="translate(211.738002, 142.634559)"><g><path d="M 9.921875 -3.953125 C 9.921875 -3.148438 9.71875 -2.429688 9.3125 -1.796875 C 8.90625 -1.171875 8.3125 -0.6875 7.53125 -0.34375 C 6.757812 0 5.859375 0.171875 4.828125 0.171875 C 3.953125 0.171875 3.21875 0.113281 2.625 0 C 2.039062 -0.125 1.429688 -0.335938 0.796875 -0.640625 L 0.796875 -3.78125 C 1.472656 -3.4375 2.171875 -3.164062 2.890625 -2.96875 C 3.617188 -2.78125 4.285156 -2.6875 4.890625 -2.6875 C 5.410156 -2.6875 5.789062 -2.773438 6.03125 -2.953125 C 6.28125 -3.128906 6.40625 -3.363281 6.40625 -3.65625 C 6.40625 -3.832031 6.351562 -3.988281 6.25 -4.125 C 6.15625 -4.257812 6 -4.394531 5.78125 -4.53125 C 5.570312 -4.664062 4.992188 -4.941406 4.046875 -5.359375 C 3.203125 -5.742188 2.566406 -6.117188 2.140625 -6.484375 C 1.710938 -6.847656 1.394531 -7.265625 1.1875 -7.734375 C 0.988281 -8.203125 0.890625 -8.757812 0.890625 -9.40625 C 0.890625 -10.601562 1.328125 -11.535156 2.203125 -12.203125 C 3.078125 -12.878906 4.273438 -13.21875 5.796875 -13.21875 C 7.148438 -13.21875 8.523438 -12.90625 9.921875 -12.28125 L 8.84375 -9.5625 C 7.625 -10.125 6.570312 -10.40625 5.6875 -10.40625 C 5.238281 -10.40625 4.910156 -10.320312 4.703125 -10.15625 C 4.492188 -10 4.390625 -9.800781 4.390625 -9.5625 C 4.390625 -9.300781 4.519531 -9.070312 4.78125 -8.875 C 5.039062 -8.675781 5.757812 -8.304688 6.9375 -7.765625 C 8.050781 -7.265625 8.828125 -6.722656 9.265625 -6.140625 C 9.703125 -5.566406 9.921875 -4.835938 9.921875 -3.953125 Z M 9.921875 -3.953125 "/></g></g></g></svg>