<svg xmlns="http://www.w3.org/2000/svg" xmlns:xlink="http://www.w3.org/1999/xlink" width="1000" zoomAndPan="magnify" viewBox="0 0 750 374.999991" height="500" preserveAspectRatio="xMidYMid meet" version="1.0"><defs><g/><clipPath id="3386ee2f39"><path d="M 17.617188 84.972656 L 212.617188 84.972656 L 212.617188 289.722656 L 17.617188 289.722656 Z M 17.617188 84.972656 " clip-rule="nonzero"/></clipPath></defs><rect x="-75" width="900" fill="#ffffff" y="-37.499999" height="449.999989" fill-opacity="1"/><rect x="-75" width="900" fill="#86198f" y="-37.499999" height="449.999989" fill-opacity="1"/><g clip-path="url(#3386ee2f39)"><path fill="#ffffff" d="M 50.707031 245.945312 C 53.582031 242.464844 57.601562 240.214844 61.789062 239.355469 C 57.355469 254.792969 59.246094 267.035156 64.910156 275.921875 C 36.585938 258.929688 17.660156 227.929688 17.660156 192.589844 C 17.660156 140.417969 58.835938 97.871094 110.5625 95.496094 C 103.460938 100.820312 93.277344 104.628906 87.859375 109.050781 C 77.679688 117.324219 78.992188 123.589844 79.199219 128.667969 C 73.164062 133.703125 70.082031 141.320312 70.742188 149.058594 C 66.308594 159.09375 58.710938 159.5 58.671875 151.722656 C 52.71875 161.179688 51.527344 168.632812 53.664062 178.953125 C 62.859375 182.597656 71.109375 182.679688 79.855469 180.261719 C 72.382812 178.953125 71.355469 171.992188 82.851562 172.238281 C 88.886719 172.359375 94.632812 173.382812 98.65625 168.265625 C 90.488281 167.773438 90.117188 160.117188 100.75 159.335938 C 120.375 157.90625 123.738281 143.203125 104.484375 142.835938 C 137.328125 129.894531 149.070312 146.355469 128.460938 167.40625 C 118.117188 177.929688 101.941406 186.363281 86.996094 196.4375 C 81.25 196.234375 76.363281 194.269531 72.753906 189.886719 C 64.871094 196.808594 50.335938 198.648438 56.207031 187.386719 C 48.941406 186.855469 44.054688 189.394531 40.527344 193.613281 C 49.679688 191.851562 51.035156 196.480469 55.59375 198.609375 C 52.347656 201.066406 47.257812 201.882812 44.21875 195.988281 C 38.761719 199.347656 36.089844 204.792969 35.597656 211.792969 C 43.03125 200.246094 48.449219 205.9375 54.359375 204.136719 C 52.265625 206.308594 49.597656 207.945312 45.902344 208.640625 C 45.207031 215.355469 47.175781 219.125 50.253906 221.664062 C 50.050781 207.578125 63.433594 201.597656 77.597656 203.316406 C 63.84375 213.925781 52.757812 227.027344 50.707031 245.945312 Z M 59.738281 171.5 C 63.800781 165.398438 67.621094 165.5625 69.097656 167.199219 C 68.277344 156.757812 63.023438 158.847656 59.738281 171.5 Z M 98.367188 110.730469 C 90.691406 113.925781 85.230469 120.027344 86.710938 128.953125 C 93.113281 112.410156 109.660156 112.574219 122.878906 105.488281 C 126.738281 103.398438 130.757812 100.574219 134.332031 97.296875 C 129.160156 96.234375 123.984375 95.660156 118.730469 95.457031 C 119.140625 92.140625 118.691406 89.191406 117.5 86.570312 C 117.828125 89.96875 116.144531 93.082031 113.640625 95.945312 C 108.796875 101.230469 101.242188 105.898438 98.367188 110.730469 Z M 76.363281 148.9375 C 79.238281 146.808594 83.21875 147.296875 85.765625 145.25 C 87.40625 143.941406 87.285156 140.460938 88.886719 138.902344 C 86.421875 140.871094 82.070312 140.335938 79.609375 142.300781 C 77.925781 143.695312 77.597656 146.847656 76.363281 148.9375 Z M 144.636719 99.917969 C 145.25 94.144531 144.839844 89.109375 143.238281 84.972656 C 142.746094 90.335938 140.898438 94.675781 138.273438 98.402344 C 127.3125 113.390625 103.417969 117.570312 104.320312 135.011719 C 109.042969 130.796875 114.09375 126.742188 120.003906 123.21875 C 116.023438 124.40625 112.203125 125.921875 108.507812 127.765625 C 108.878906 126.453125 109.496094 125.226562 110.316406 124.078125 C 120.042969 118.46875 132.074219 115.234375 143.816406 116.136719 C 131.992188 119.328125 132.605469 128.460938 146.195312 128.339844 C 156.253906 128.214844 165.613281 124.980469 175.507812 131.613281 C 166.269531 130.671875 158.675781 137.183594 170.949219 147.953125 C 180.023438 155.855469 187.945312 163.308594 182.445312 180.425781 C 178.792969 168.960938 169.308594 167.855469 166.96875 183.660156 C 165.65625 192.464844 165.160156 202.007812 155.554688 209.582031 C 156.871094 203.605469 156.171875 199.425781 152.394531 195.78125 C 161.589844 183.046875 165.53125 162.53125 154.570312 149.507812 C 161.140625 166.871094 154.652344 185.546875 143.238281 197.132812 C 132.320312 208.191406 118.28125 216.914062 106.988281 227.601562 C 65.238281 266.996094 105.429688 288.65625 134.25 264.742188 C 99.929688 280.304688 92.621094 257.085938 105.554688 243.816406 C 109.578125 256.226562 125.421875 250.410156 134.699219 243.570312 C 145.292969 235.75 157.9375 217.9375 167.832031 208.847656 C 182.402344 195.539062 203.175781 199.265625 206.789062 225.675781 C 210.527344 215.355469 212.578125 204.21875 212.578125 192.628906 C 212.578125 150.207031 185.113281 112.820312 144.636719 99.917969 Z M 93.648438 221.375 C 115.941406 198.855469 147.878906 190.296875 145.949219 159.09375 C 137.945312 190.050781 83.261719 203.480469 70.535156 230.632812 C 72.792969 229.730469 75.011719 229.199219 77.269531 228.910156 C 67.25 241.851562 69.097656 264.292969 83.753906 273.097656 C 75.667969 263.023438 73.574219 241.648438 93.648438 221.375 Z M 166.804688 238.207031 C 160.152344 250.902344 153.707031 262.695312 144.101562 273.382812 C 137.164062 281.121094 128.582031 286.527344 119.632812 289.722656 C 151.203125 288.289062 178.875 271.828125 195.664062 247.378906 C 193.285156 243.53125 189.957031 242.261719 185.277344 245.003906 C 187.085938 239.066406 193.367188 235.996094 199.976562 240.460938 C 202.234375 241.933594 204.492188 244.308594 206.625 247.75 C 206.832031 243.039062 205.640625 238.042969 203.503906 233.621094 C 196.773438 219.863281 180.433594 212.203125 166.804688 238.207031 Z M 166.804688 238.207031 " fill-opacity="1" fill-rule="evenodd"/></g><g fill="#ffffff" fill-opacity="1"><g transform="translate(224.104693, 234.597346)"><g><path d="M 37.34375 -42.90625 L 68.96875 -42.90625 L 68.96875 -3.40625 C 60.375 -0.46875 50.929688 1 40.640625 1 C 29.347656 1 20.617188 -2.269531 14.453125 -8.8125 C 8.296875 -15.363281 5.21875 -24.707031 5.21875 -36.84375 C 5.21875 -48.664062 8.585938 -57.867188 15.328125 -64.453125 C 22.078125 -71.035156 31.535156 -74.328125 43.703125 -74.328125 C 48.316406 -74.328125 52.664062 -73.890625 56.75 -73.015625 C 60.84375 -72.148438 64.410156 -71.050781 67.453125 -69.71875 L 61.1875 -54.171875 C 55.914062 -56.785156 50.117188 -58.09375 43.796875 -58.09375 C 38.015625 -58.09375 33.546875 -56.210938 30.390625 -52.453125 C 27.234375 -48.691406 25.65625 -43.316406 25.65625 -36.328125 C 25.65625 -29.484375 27.082031 -24.265625 29.9375 -20.671875 C 32.800781 -17.078125 36.921875 -15.28125 42.296875 -15.28125 C 45.234375 -15.28125 47.941406 -15.566406 50.421875 -16.140625 L 50.421875 -27.609375 L 37.34375 -27.609375 Z M 37.34375 -42.90625 "/></g></g></g><g fill="#ffffff" fill-opacity="1"><g transform="translate(306.008674, 234.597346)"><g><path d="M 52.875 0 L 49.265625 -13.734375 L 25.453125 -13.734375 L 21.75 0 L 0 0 L 23.90625 -73.578125 L 50.3125 -73.578125 L 74.53125 0 Z M 45.15625 -29.96875 L 42 -42 C 41.257812 -44.675781 40.363281 -48.132812 39.3125 -52.375 C 38.257812 -56.613281 37.566406 -59.65625 37.234375 -61.5 C 36.929688 -59.789062 36.335938 -56.976562 35.453125 -53.0625 C 34.566406 -49.15625 32.601562 -41.457031 29.5625 -29.96875 Z M 45.15625 -29.96875 "/></g></g></g><g fill="#ffffff" fill-opacity="1"><g transform="translate(386.459791, 234.597346)"><g><path d="M 39.84375 0 L 24.859375 -52.78125 L 24.40625 -52.78125 C 25.101562 -43.789062 25.453125 -36.804688 25.453125 -31.828125 L 25.453125 0 L 7.921875 0 L 7.921875 -73.265625 L 34.28125 -73.265625 L 49.5625 -21.25 L 49.96875 -21.25 L 64.953125 -73.265625 L 91.359375 -73.265625 L 91.359375 0 L 73.171875 0 L 73.171875 -32.125 C 73.171875 -33.789062 73.195312 -35.644531 73.25 -37.6875 C 73.300781 -39.726562 73.523438 -44.722656 73.921875 -52.671875 L 73.46875 -52.671875 L 58.6875 0 Z M 39.84375 0 "/></g></g></g><g fill="#ffffff" fill-opacity="1"><g transform="translate(491.609614, 234.597346)"><g><path d="M 7.921875 0 L 7.921875 -73.265625 L 27.8125 -73.265625 L 27.8125 0 Z M 7.921875 0 "/></g></g></g><g fill="#ffffff" fill-opacity="1"><g transform="translate(533.284261, 234.597346)"><g><path d="M 77.6875 0 L 51.71875 0 L 24.953125 -51.625 L 24.5 -51.625 C 25.132812 -43.5 25.453125 -37.300781 25.453125 -33.03125 L 25.453125 0 L 7.921875 0 L 7.921875 -73.265625 L 33.78125 -73.265625 L 60.4375 -22.359375 L 60.75 -22.359375 C 60.28125 -29.734375 60.046875 -35.660156 60.046875 -40.140625 L 60.046875 -73.265625 L 77.6875 -73.265625 Z M 77.6875 0 "/></g></g></g><g fill="#ffffff" fill-opacity="1"><g transform="translate(624.807211, 234.597346)"><g><path d="M 37.34375 -42.90625 L 68.96875 -42.90625 L 68.96875 -3.40625 C 60.375 -0.46875 50.929688 1 40.640625 1 C 29.347656 1 20.617188 -2.269531 14.453125 -8.8125 C 8.296875 -15.363281 5.21875 -24.707031 5.21875 -36.84375 C 5.21875 -48.664062 8.585938 -57.867188 15.328125 -64.453125 C 22.078125 -71.035156 31.535156 -74.328125 43.703125 -74.328125 C 48.316406 -74.328125 52.664062 -73.890625 56.75 -73.015625 C 60.84375 -72.148438 64.410156 -71.050781 67.453125 -69.71875 L 61.1875 -54.171875 C 55.914062 -56.785156 50.117188 -58.09375 43.796875 -58.09375 C 38.015625 -58.09375 33.546875 -56.210938 30.390625 -52.453125 C 27.234375 -48.691406 25.65625 -43.316406 25.65625 -36.328125 C 25.65625 -29.484375 27.082031 -24.265625 29.9375 -20.671875 C 32.800781 -17.078125 36.921875 -15.28125 42.296875 -15.28125 C 45.234375 -15.28125 47.941406 -15.566406 50.421875 -16.140625 L 50.421875 -27.609375 L 37.34375 -27.609375 Z M 37.34375 -42.90625 "/></g></g></g><g fill="#ffffff" fill-opacity="1"><g transform="translate(248.638607, 149.65414)"><g><path d="M 25.515625 -13.890625 C 25.515625 -9.441406 24.285156 -6.015625 21.828125 -3.609375 C 19.378906 -1.203125 15.9375 0 11.5 0 L 2.875 0 L 2.875 -26.65625 L 12.109375 -26.65625 C 16.390625 -26.65625 19.691406 -25.5625 22.015625 -23.375 C 24.347656 -21.1875 25.515625 -18.023438 25.515625 -13.890625 Z M 18.03125 -13.640625 C 18.03125 -16.078125 17.546875 -17.882812 16.578125 -19.0625 C 15.617188 -20.25 14.15625 -20.84375 12.1875 -20.84375 L 10.078125 -20.84375 L 10.078125 -5.90625 L 11.6875 -5.90625 C 13.875 -5.90625 15.476562 -6.539062 16.5 -7.8125 C 17.519531 -9.082031 18.03125 -11.023438 18.03125 -13.640625 Z M 18.03125 -13.640625 "/></g></g></g><g fill="#ffffff" fill-opacity="1"><g transform="translate(278.20738, 149.65414)"><g><path d="M 10.078125 -9.703125 L 10.078125 0 L 2.875 0 L 2.875 -26.65625 L 11.609375 -26.65625 C 18.859375 -26.65625 22.484375 -24.03125 22.484375 -18.78125 C 22.484375 -15.695312 20.972656 -13.304688 17.953125 -11.609375 L 25.734375 0 L 17.5625 0 L 11.90625 -9.703125 Z M 10.078125 -15.109375 L 11.4375 -15.109375 C 13.945312 -15.109375 15.203125 -16.222656 15.203125 -18.453125 C 15.203125 -20.285156 13.96875 -21.203125 11.5 -21.203125 L 10.078125 -21.203125 Z M 10.078125 -15.109375 "/></g></g></g><g fill="#ffffff" fill-opacity="1"><g transform="translate(305.643065, 149.65414)"><g><path d="M 19.234375 0 L 17.921875 -5 L 9.265625 -5 L 7.90625 0 L 0 0 L 8.703125 -26.765625 L 18.3125 -26.765625 L 27.109375 0 Z M 16.421875 -10.90625 L 15.28125 -15.28125 C 15.007812 -16.25 14.679688 -17.503906 14.296875 -19.046875 C 13.921875 -20.597656 13.671875 -21.707031 13.546875 -22.375 C 13.441406 -21.75 13.226562 -20.722656 12.90625 -19.296875 C 12.582031 -17.878906 11.867188 -15.082031 10.765625 -10.90625 Z M 16.421875 -10.90625 "/></g></g></g><g fill="#ffffff" fill-opacity="1"><g transform="translate(334.920134, 149.65414)"><g><path d="M 13.578125 -15.609375 L 25.09375 -15.609375 L 25.09375 -1.234375 C 21.96875 -0.171875 18.53125 0.359375 14.78125 0.359375 C 10.675781 0.359375 7.5 -0.828125 5.25 -3.203125 C 3.007812 -5.585938 1.890625 -8.988281 1.890625 -13.40625 C 1.890625 -17.707031 3.117188 -21.054688 5.578125 -23.453125 C 8.035156 -25.847656 11.476562 -27.046875 15.90625 -27.046875 C 17.582031 -27.046875 19.164062 -26.882812 20.65625 -26.5625 C 22.144531 -26.25 23.441406 -25.847656 24.546875 -25.359375 L 22.265625 -19.71875 C 20.347656 -20.664062 18.238281 -21.140625 15.9375 -21.140625 C 13.832031 -21.140625 12.207031 -20.453125 11.0625 -19.078125 C 9.914062 -17.710938 9.34375 -15.757812 9.34375 -13.21875 C 9.34375 -10.726562 9.859375 -8.828125 10.890625 -7.515625 C 11.929688 -6.210938 13.429688 -5.5625 15.390625 -5.5625 C 16.460938 -5.5625 17.445312 -5.664062 18.34375 -5.875 L 18.34375 -10.046875 L 13.578125 -10.046875 Z M 13.578125 -15.609375 "/></g></g></g><g fill="#ffffff" fill-opacity="1"><g transform="translate(364.725916, 149.65414)"><g><path d="M 27.828125 -13.359375 C 27.828125 -8.878906 26.722656 -5.472656 24.515625 -3.140625 C 22.316406 -0.804688 19.097656 0.359375 14.859375 0.359375 C 10.679688 0.359375 7.472656 -0.8125 5.234375 -3.15625 C 3.003906 -5.5 1.890625 -8.914062 1.890625 -13.40625 C 1.890625 -17.84375 3 -21.226562 5.21875 -23.5625 C 7.4375 -25.90625 10.660156 -27.078125 14.890625 -27.078125 C 19.140625 -27.078125 22.359375 -25.914062 24.546875 -23.59375 C 26.734375 -21.269531 27.828125 -17.859375 27.828125 -13.359375 Z M 9.484375 -13.359375 C 9.484375 -8.210938 11.273438 -5.640625 14.859375 -5.640625 C 16.679688 -5.640625 18.03125 -6.265625 18.90625 -7.515625 C 19.789062 -8.765625 20.234375 -10.710938 20.234375 -13.359375 C 20.234375 -16.023438 19.785156 -17.992188 18.890625 -19.265625 C 18.003906 -20.535156 16.671875 -21.171875 14.890625 -21.171875 C 11.285156 -21.171875 9.484375 -18.566406 9.484375 -13.359375 Z M 9.484375 -13.359375 "/></g></g></g><g fill="#ffffff" fill-opacity="1"><g transform="translate(396.646555, 149.65414)"><g><path d="M 28.265625 0 L 18.8125 0 L 9.078125 -18.78125 L 8.921875 -18.78125 C 9.148438 -15.820312 9.265625 -13.566406 9.265625 -12.015625 L 9.265625 0 L 2.875 0 L 2.875 -26.65625 L 12.296875 -26.65625 L 21.984375 -8.125 L 22.09375 -8.125 C 21.925781 -10.8125 21.84375 -12.972656 21.84375 -14.609375 L 21.84375 -26.65625 L 28.265625 -26.65625 Z M 28.265625 0 "/></g></g></g><g fill="#ffffff" fill-opacity="1"><g transform="translate(429.952789, 149.65414)"><g><path d="M 9.96875 0 L 2.875 0 L 2.875 -26.65625 L 18.640625 -26.65625 L 18.640625 -20.875 L 9.96875 -20.875 L 9.96875 -15.796875 L 17.953125 -15.796875 L 17.953125 -10.015625 L 9.96875 -10.015625 Z M 9.96875 0 "/></g></g></g><g fill="#ffffff" fill-opacity="1"><g transform="translate(452.247186, 149.65414)"><g><path d="M 27.828125 -13.359375 C 27.828125 -8.878906 26.722656 -5.472656 24.515625 -3.140625 C 22.316406 -0.804688 19.097656 0.359375 14.859375 0.359375 C 10.679688 0.359375 7.472656 -0.8125 5.234375 -3.15625 C 3.003906 -5.5 1.890625 -8.914062 1.890625 -13.40625 C 1.890625 -17.84375 3 -21.226562 5.21875 -23.5625 C 7.4375 -25.90625 10.660156 -27.078125 14.890625 -27.078125 C 19.140625 -27.078125 22.359375 -25.914062 24.546875 -23.59375 C 26.734375 -21.269531 27.828125 -17.859375 27.828125 -13.359375 Z M 9.484375 -13.359375 C 9.484375 -8.210938 11.273438 -5.640625 14.859375 -5.640625 C 16.679688 -5.640625 18.03125 -6.265625 18.90625 -7.515625 C 19.789062 -8.765625 20.234375 -10.710938 20.234375 -13.359375 C 20.234375 -16.023438 19.785156 -17.992188 18.890625 -19.265625 C 18.003906 -20.535156 16.671875 -21.171875 14.890625 -21.171875 C 11.285156 -21.171875 9.484375 -18.566406 9.484375 -13.359375 Z M 9.484375 -13.359375 "/></g></g></g><g fill="#ffffff" fill-opacity="1"><g transform="translate(484.167825, 149.65414)"><g><path d="M 10.078125 -9.703125 L 10.078125 0 L 2.875 0 L 2.875 -26.65625 L 11.609375 -26.65625 C 18.859375 -26.65625 22.484375 -24.03125 22.484375 -18.78125 C 22.484375 -15.695312 20.972656 -13.304688 17.953125 -11.609375 L 25.734375 0 L 17.5625 0 L 11.90625 -9.703125 Z M 10.078125 -15.109375 L 11.4375 -15.109375 C 13.945312 -15.109375 15.203125 -16.222656 15.203125 -18.453125 C 15.203125 -20.285156 13.96875 -21.203125 11.5 -21.203125 L 10.078125 -21.203125 Z M 10.078125 -15.109375 "/></g></g></g><g fill="#ffffff" fill-opacity="1"><g transform="translate(511.60351, 149.65414)"><g><path d="M 13.578125 -15.609375 L 25.09375 -15.609375 L 25.09375 -1.234375 C 21.96875 -0.171875 18.53125 0.359375 14.78125 0.359375 C 10.675781 0.359375 7.5 -0.828125 5.25 -3.203125 C 3.007812 -5.585938 1.890625 -8.988281 1.890625 -13.40625 C 1.890625 -17.707031 3.117188 -21.054688 5.578125 -23.453125 C 8.035156 -25.847656 11.476562 -27.046875 15.90625 -27.046875 C 17.582031 -27.046875 19.164062 -26.882812 20.65625 -26.5625 C 22.144531 -26.25 23.441406 -25.847656 24.546875 -25.359375 L 22.265625 -19.71875 C 20.347656 -20.664062 18.238281 -21.140625 15.9375 -21.140625 C 13.832031 -21.140625 12.207031 -20.453125 11.0625 -19.078125 C 9.914062 -17.710938 9.34375 -15.757812 9.34375 -13.21875 C 9.34375 -10.726562 9.859375 -8.828125 10.890625 -7.515625 C 11.929688 -6.210938 13.429688 -5.5625 15.390625 -5.5625 C 16.460938 -5.5625 17.445312 -5.664062 18.34375 -5.875 L 18.34375 -10.046875 L 13.578125 -10.046875 Z M 13.578125 -15.609375 "/></g></g></g><g fill="#ffffff" fill-opacity="1"><g transform="translate(541.409293, 149.65414)"><g><path d="M 18.703125 0 L 2.875 0 L 2.875 -26.65625 L 18.703125 -26.65625 L 18.703125 -20.875 L 10.078125 -20.875 L 10.078125 -16.6875 L 18.0625 -16.6875 L 18.0625 -10.90625 L 10.078125 -10.90625 L 10.078125 -5.875 L 18.703125 -5.875 Z M 18.703125 0 "/></g></g></g><g fill="#ffffff" fill-opacity="1"><g transform="translate(564.068321, 149.65414)"><g><path d="M 28.265625 0 L 18.8125 0 L 9.078125 -18.78125 L 8.921875 -18.78125 C 9.148438 -15.820312 9.265625 -13.566406 9.265625 -12.015625 L 9.265625 0 L 2.875 0 L 2.875 -26.65625 L 12.296875 -26.65625 L 21.984375 -8.125 L 22.09375 -8.125 C 21.925781 -10.8125 21.84375 -12.972656 21.84375 -14.609375 L 21.84375 -26.65625 L 28.265625 -26.65625 Z M 28.265625 0 "/></g></g></g><g fill="#ffffff" fill-opacity="1"><g transform="translate(597.374555, 149.65414)"><g><path d="M 18.703125 0 L 2.875 0 L 2.875 -26.65625 L 18.703125 -26.65625 L 18.703125 -20.875 L 10.078125 -20.875 L 10.078125 -16.6875 L 18.0625 -16.6875 L 18.0625 -10.90625 L 10.078125 -10.90625 L 10.078125 -5.875 L 18.703125 -5.875 Z M 18.703125 0 "/></g></g></g><g fill="#ffffff" fill-opacity="1"><g transform="translate(620.033583, 149.65414)"><g><path d="M 26.890625 0 L 18.5625 0 L 13.359375 -8.328125 L 8.21875 0 L 0.078125 0 L 8.921875 -13.640625 L 0.609375 -26.65625 L 8.59375 -26.65625 L 13.40625 -18.421875 L 18.03125 -26.65625 L 26.25 -26.65625 L 17.8125 -13.078125 Z M 26.890625 0 "/></g></g></g><g fill="#ffffff" fill-opacity="1"><g transform="translate(649.201262, 149.65414)"><g><path d="M 25.546875 -26.65625 L 25.546875 -10.609375 C 25.546875 -7.117188 24.554688 -4.414062 22.578125 -2.5 C 20.609375 -0.59375 17.765625 0.359375 14.046875 0.359375 C 10.410156 0.359375 7.613281 -0.566406 5.65625 -2.421875 C 3.707031 -4.285156 2.734375 -6.960938 2.734375 -10.453125 L 2.734375 -26.65625 L 9.96875 -26.65625 L 9.96875 -11.015625 C 9.96875 -9.128906 10.320312 -7.757812 11.03125 -6.90625 C 11.738281 -6.0625 12.78125 -5.640625 14.15625 -5.640625 C 15.625 -5.640625 16.6875 -6.0625 17.34375 -6.90625 C 18.007812 -7.75 18.34375 -9.128906 18.34375 -11.046875 L 18.34375 -26.65625 Z M 25.546875 -26.65625 "/></g></g></g><g fill="#ffffff" fill-opacity="1"><g transform="translate(679.626942, 149.65414)"><g><path d="M 20.3125 -8.09375 C 20.3125 -6.4375 19.890625 -4.96875 19.046875 -3.6875 C 18.210938 -2.40625 17.003906 -1.410156 15.421875 -0.703125 C 13.847656 0.00390625 11.992188 0.359375 9.859375 0.359375 C 8.085938 0.359375 6.597656 0.234375 5.390625 -0.015625 C 4.191406 -0.265625 2.941406 -0.695312 1.640625 -1.3125 L 1.640625 -7.734375 C 3.015625 -7.023438 4.441406 -6.472656 5.921875 -6.078125 C 7.410156 -5.679688 8.773438 -5.484375 10.015625 -5.484375 C 11.078125 -5.484375 11.859375 -5.664062 12.359375 -6.03125 C 12.859375 -6.40625 13.109375 -6.882812 13.109375 -7.46875 C 13.109375 -7.832031 13.007812 -8.148438 12.8125 -8.421875 C 12.613281 -8.703125 12.289062 -8.984375 11.84375 -9.265625 C 11.394531 -9.546875 10.210938 -10.117188 8.296875 -10.984375 C 6.554688 -11.765625 5.25 -12.523438 4.375 -13.265625 C 3.507812 -14.015625 2.867188 -14.867188 2.453125 -15.828125 C 2.035156 -16.785156 1.828125 -17.921875 1.828125 -19.234375 C 1.828125 -21.691406 2.71875 -23.609375 4.5 -24.984375 C 6.289062 -26.359375 8.75 -27.046875 11.875 -27.046875 C 14.632812 -27.046875 17.445312 -26.40625 20.3125 -25.125 L 18.109375 -19.5625 C 15.617188 -20.707031 13.46875 -21.28125 11.65625 -21.28125 C 10.71875 -21.28125 10.035156 -21.113281 9.609375 -20.78125 C 9.179688 -20.457031 8.96875 -20.050781 8.96875 -19.5625 C 8.96875 -19.039062 9.238281 -18.570312 9.78125 -18.15625 C 10.320312 -17.75 11.789062 -17 14.1875 -15.90625 C 16.476562 -14.863281 18.070312 -13.75 18.96875 -12.5625 C 19.863281 -11.382812 20.3125 -9.894531 20.3125 -8.09375 Z M 20.3125 -8.09375 "/></g></g></g></svg>