<svg xmlns="http://www.w3.org/2000/svg" xmlns:xlink="http://www.w3.org/1999/xlink" width="500" zoomAndPan="magnify" viewBox="0 0 375 374.999991" height="500" preserveAspectRatio="xMidYMid meet" version="1.0"><defs><g/><clipPath id="c6f808e70e"><path d="M 88.898438 150.367188 L 202.898438 150.367188 L 202.898438 270.367188 L 88.898438 270.367188 Z M 88.898438 150.367188 " clip-rule="nonzero"/></clipPath></defs><g clip-path="url(#c6f808e70e)"><path fill="#ffffff" d="M 108.277344 244.867188 C 109.957031 242.824219 112.3125 241.5 114.765625 240.996094 C 112.171875 250.058594 113.277344 257.246094 116.59375 262.464844 C 100.007812 252.488281 88.921875 234.289062 88.921875 213.542969 C 88.921875 182.914062 113.035156 157.9375 143.324219 156.542969 C 139.167969 159.667969 133.203125 161.90625 130.03125 164.5 C 124.070312 169.359375 124.839844 173.035156 124.960938 176.015625 C 121.425781 178.972656 119.621094 183.445312 120.007812 187.988281 C 117.410156 193.878906 112.964844 194.117188 112.9375 189.550781 C 109.453125 195.105469 108.757812 199.480469 110.007812 205.539062 C 115.390625 207.675781 120.222656 207.726562 125.34375 206.308594 C 120.96875 205.539062 120.367188 201.449219 127.097656 201.59375 C 130.632812 201.667969 134 202.269531 136.355469 199.261719 C 131.570312 198.972656 131.355469 194.480469 137.582031 194.023438 C 149.070312 193.179688 151.042969 184.550781 139.769531 184.335938 C 159 176.738281 165.875 186.402344 153.808594 198.757812 C 147.75 204.9375 138.277344 209.886719 129.527344 215.800781 C 126.160156 215.683594 123.300781 214.527344 121.183594 211.957031 C 116.570312 216.019531 108.058594 217.101562 111.496094 210.488281 C 107.242188 210.175781 104.382812 211.667969 102.3125 214.144531 C 107.675781 213.109375 108.46875 215.828125 111.136719 217.078125 C 109.238281 218.519531 106.257812 219 104.476562 215.539062 C 101.28125 217.507812 99.71875 220.707031 99.429688 224.816406 C 103.78125 218.039062 106.953125 221.378906 110.414062 220.320312 C 109.1875 221.597656 107.625 222.558594 105.464844 222.964844 C 105.054688 226.910156 106.207031 229.121094 108.011719 230.609375 C 107.890625 222.339844 115.726562 218.832031 124.023438 219.839844 C 115.96875 226.066406 109.476562 233.761719 108.277344 244.867188 Z M 113.5625 201.164062 C 115.945312 197.582031 118.179688 197.675781 119.046875 198.636719 C 118.566406 192.507812 115.488281 193.734375 113.5625 201.164062 Z M 136.1875 165.488281 C 131.691406 167.363281 128.492188 170.945312 129.359375 176.183594 C 133.109375 166.472656 142.796875 166.570312 150.539062 162.410156 C 152.796875 161.183594 155.152344 159.523438 157.246094 157.601562 C 154.214844 156.976562 151.1875 156.640625 148.109375 156.519531 C 148.351562 154.574219 148.085938 152.84375 147.386719 151.304688 C 147.582031 153.300781 146.59375 155.125 145.128906 156.808594 C 142.292969 159.910156 137.867188 162.648438 136.1875 165.488281 Z M 123.300781 187.917969 C 124.984375 186.667969 127.316406 186.953125 128.804688 185.753906 C 129.765625 184.984375 129.695312 182.941406 130.632812 182.027344 C 129.191406 183.179688 126.640625 182.867188 125.199219 184.023438 C 124.214844 184.839844 124.023438 186.691406 123.300781 187.917969 Z M 163.277344 159.140625 C 163.640625 155.75 163.398438 152.792969 162.460938 150.367188 C 162.171875 153.515625 161.089844 156.0625 159.550781 158.25 C 153.132812 167.050781 139.144531 169.5 139.671875 179.742188 C 142.4375 177.265625 145.394531 174.886719 148.855469 172.820312 C 146.523438 173.515625 144.289062 174.40625 142.125 175.488281 C 142.339844 174.71875 142.699219 173.996094 143.179688 173.324219 C 148.878906 170.03125 155.921875 168.132812 162.796875 168.660156 C 155.875 170.535156 156.234375 175.894531 164.191406 175.824219 C 170.082031 175.753906 175.5625 173.851562 181.355469 177.746094 C 175.949219 177.195312 171.5 181.015625 178.6875 187.339844 C 184 191.980469 188.640625 196.355469 185.417969 206.402344 C 183.28125 199.671875 177.726562 199.023438 176.355469 208.300781 C 175.585938 213.46875 175.296875 219.070312 169.671875 223.519531 C 170.441406 220.007812 170.035156 217.558594 167.820312 215.417969 C 173.207031 207.941406 175.515625 195.898438 169.097656 188.253906 C 172.941406 198.445312 169.144531 209.40625 162.460938 216.210938 C 156.066406 222.703125 147.84375 227.824219 141.234375 234.097656 C 116.785156 257.222656 140.320312 269.941406 157.195312 255.902344 C 137.097656 265.035156 132.820312 251.40625 140.394531 243.617188 C 142.75 250.902344 152.027344 247.488281 157.460938 243.472656 C 163.664062 238.878906 171.066406 228.421875 176.859375 223.085938 C 185.394531 215.273438 197.558594 217.460938 199.675781 232.96875 C 201.863281 226.910156 203.066406 220.371094 203.066406 213.566406 C 203.066406 188.660156 186.980469 166.714844 163.277344 159.140625 Z M 133.421875 230.441406 C 146.476562 217.222656 165.179688 212.195312 164.046875 193.878906 C 159.359375 212.050781 127.339844 219.9375 119.886719 235.875 C 121.210938 235.347656 122.507812 235.035156 123.828125 234.867188 C 117.964844 242.460938 119.046875 255.636719 127.628906 260.804688 C 122.890625 254.890625 121.664062 242.34375 133.421875 230.441406 Z M 176.261719 240.324219 C 172.367188 247.777344 168.589844 254.699219 162.964844 260.972656 C 158.902344 265.515625 153.878906 268.691406 148.636719 270.566406 C 167.125 269.722656 183.328125 260.058594 193.160156 245.707031 C 191.765625 243.449219 189.820312 242.703125 187.078125 244.3125 C 188.136719 240.828125 191.8125 239.023438 195.683594 241.644531 C 197.007812 242.511719 198.328125 243.90625 199.578125 245.925781 C 199.699219 243.160156 199 240.226562 197.75 237.628906 C 193.808594 229.554688 184.242188 225.058594 176.261719 240.324219 Z M 176.261719 240.324219 " fill-opacity="1" fill-rule="evenodd"/></g><g fill="#ffffff" fill-opacity="1"><g transform="translate(-1.313623, 258.040249)"><g><path d="M 49.703125 -71.21875 C 43.929688 -71.21875 39.425781 -68.847656 36.1875 -64.109375 C 32.957031 -59.378906 31.34375 -52.859375 31.34375 -44.546875 C 31.34375 -27.265625 37.914062 -18.625 51.0625 -18.625 C 55.03125 -18.625 58.878906 -19.175781 62.609375 -20.28125 C 66.335938 -21.382812 70.085938 -22.710938 73.859375 -24.265625 L 73.859375 -3.75 C 66.359375 -0.425781 57.878906 1.234375 48.421875 1.234375 C 34.859375 1.234375 24.460938 -2.695312 17.234375 -10.5625 C 10.003906 -18.425781 6.390625 -29.796875 6.390625 -44.671875 C 6.390625 -53.972656 8.140625 -62.144531 11.640625 -69.1875 C 15.140625 -76.238281 20.175781 -81.65625 26.75 -85.4375 C 33.332031 -89.226562 41.066406 -91.125 49.953125 -91.125 C 59.660156 -91.125 68.941406 -89.015625 77.796875 -84.796875 L 70.359375 -65.6875 C 67.035156 -67.238281 63.710938 -68.546875 60.390625 -69.609375 C 57.078125 -70.679688 53.515625 -71.21875 49.703125 -71.21875 Z M 49.703125 -71.21875 "/></g></g></g><g fill="#ffffff" fill-opacity="1"><g transform="translate(87.645395, 258.040249)"><g/></g></g><g fill="#ffffff" fill-opacity="1"><g transform="translate(127.627774, 258.040249)"><g/></g></g><g fill="#ffffff" fill-opacity="1"><g transform="translate(167.610153, 258.040249)"><g/></g></g><g fill="#ffffff" fill-opacity="1"><g transform="translate(207.603236, 258.040249)"><g><path d="M 85.96875 -46.828125 C 85.96875 -31.828125 81.835938 -20.269531 73.578125 -12.15625 C 65.328125 -4.050781 53.722656 0 38.765625 0 L 9.703125 0 L 9.703125 -89.828125 L 40.796875 -89.828125 C 55.222656 -89.828125 66.359375 -86.140625 74.203125 -78.765625 C 82.046875 -71.398438 85.96875 -60.753906 85.96875 -46.828125 Z M 60.765625 -45.96875 C 60.765625 -54.195312 59.132812 -60.296875 55.875 -64.265625 C 52.625 -68.242188 47.679688 -70.234375 41.046875 -70.234375 L 33.984375 -70.234375 L 33.984375 -19.90625 L 39.390625 -19.90625 C 46.765625 -19.90625 52.171875 -22.046875 55.609375 -26.328125 C 59.046875 -30.609375 60.765625 -37.15625 60.765625 -45.96875 Z M 60.765625 -45.96875 "/></g></g></g><g fill="#ffffff" fill-opacity="1"><g transform="translate(307.239413, 258.040249)"><g><path d="M 63.046875 0 L 9.703125 0 L 9.703125 -89.828125 L 63.046875 -89.828125 L 63.046875 -70.359375 L 33.984375 -70.359375 L 33.984375 -56.21875 L 60.890625 -56.21875 L 60.890625 -36.75 L 33.984375 -36.75 L 33.984375 -19.78125 L 63.046875 -19.78125 Z M 63.046875 0 "/></g></g></g><g fill="#ffffff" fill-opacity="1"><g transform="translate(1.232548, 142.634559)"><g><path d="M 12.46875 -6.796875 C 12.46875 -4.617188 11.867188 -2.941406 10.671875 -1.765625 C 9.472656 -0.585938 7.789062 0 5.625 0 L 1.40625 0 L 1.40625 -13.03125 L 5.921875 -13.03125 C 8.003906 -13.03125 9.613281 -12.492188 10.75 -11.421875 C 11.894531 -10.347656 12.46875 -8.804688 12.46875 -6.796875 Z M 8.8125 -6.671875 C 8.8125 -7.859375 8.570312 -8.738281 8.09375 -9.3125 C 7.625 -9.894531 6.910156 -10.1875 5.953125 -10.1875 L 4.921875 -10.1875 L 4.921875 -2.890625 L 5.71875 -2.890625 C 6.78125 -2.890625 7.5625 -3.195312 8.0625 -3.8125 C 8.5625 -4.4375 8.8125 -5.390625 8.8125 -6.671875 Z M 8.8125 -6.671875 "/></g></g></g><g fill="#ffffff" fill-opacity="1"><g transform="translate(15.674686, 142.634559)"><g><path d="M 4.921875 -4.734375 L 4.921875 0 L 1.40625 0 L 1.40625 -13.03125 L 5.671875 -13.03125 C 9.210938 -13.03125 10.984375 -11.742188 10.984375 -9.171875 C 10.984375 -7.671875 10.25 -6.503906 8.78125 -5.671875 L 12.578125 0 L 8.578125 0 L 5.8125 -4.734375 Z M 4.921875 -7.390625 L 5.59375 -7.390625 C 6.820312 -7.390625 7.4375 -7.929688 7.4375 -9.015625 C 7.4375 -9.910156 6.832031 -10.359375 5.625 -10.359375 L 4.921875 -10.359375 Z M 4.921875 -7.390625 "/></g></g></g><g fill="#ffffff" fill-opacity="1"><g transform="translate(29.074957, 142.634559)"><g><path d="M 9.40625 0 L 8.765625 -2.4375 L 4.53125 -2.4375 L 3.875 0 L 0 0 L 4.25 -13.078125 L 8.953125 -13.078125 L 13.25 0 Z M 8.03125 -5.328125 L 7.46875 -7.46875 C 7.332031 -7.945312 7.171875 -8.5625 6.984375 -9.3125 C 6.796875 -10.0625 6.675781 -10.601562 6.625 -10.9375 C 6.570312 -10.632812 6.460938 -10.132812 6.296875 -9.4375 C 6.140625 -8.738281 5.789062 -7.367188 5.25 -5.328125 Z M 8.03125 -5.328125 "/></g></g></g><g fill="#ffffff" fill-opacity="1"><g transform="translate(43.374618, 142.634559)"><g><path d="M 6.640625 -7.625 L 12.265625 -7.625 L 12.265625 -0.609375 C 10.734375 -0.0859375 9.054688 0.171875 7.234375 0.171875 C 5.222656 0.171875 3.664062 -0.40625 2.5625 -1.5625 C 1.46875 -2.726562 0.921875 -4.390625 0.921875 -6.546875 C 0.921875 -8.648438 1.519531 -10.285156 2.71875 -11.453125 C 3.925781 -12.628906 5.609375 -13.21875 7.765625 -13.21875 C 8.585938 -13.21875 9.363281 -13.140625 10.09375 -12.984375 C 10.820312 -12.828125 11.457031 -12.628906 12 -12.390625 L 10.875 -9.640625 C 9.9375 -10.097656 8.90625 -10.328125 7.78125 -10.328125 C 6.757812 -10.328125 5.96875 -9.992188 5.40625 -9.328125 C 4.84375 -8.660156 4.5625 -7.703125 4.5625 -6.453125 C 4.5625 -5.242188 4.816406 -4.316406 5.328125 -3.671875 C 5.835938 -3.035156 6.566406 -2.71875 7.515625 -2.71875 C 8.046875 -2.71875 8.53125 -2.769531 8.96875 -2.875 L 8.96875 -4.90625 L 6.640625 -4.90625 Z M 6.640625 -7.625 "/></g></g></g><g fill="#ffffff" fill-opacity="1"><g transform="translate(57.932511, 142.634559)"><g><path d="M 13.59375 -6.53125 C 13.59375 -4.34375 13.054688 -2.675781 11.984375 -1.53125 C 10.910156 -0.394531 9.335938 0.171875 7.265625 0.171875 C 5.222656 0.171875 3.65625 -0.398438 2.5625 -1.546875 C 1.46875 -2.691406 0.921875 -4.359375 0.921875 -6.546875 C 0.921875 -8.710938 1.460938 -10.367188 2.546875 -11.515625 C 3.628906 -12.660156 5.207031 -13.234375 7.28125 -13.234375 C 9.351562 -13.234375 10.921875 -12.664062 11.984375 -11.53125 C 13.054688 -10.394531 13.59375 -8.726562 13.59375 -6.53125 Z M 4.640625 -6.53125 C 4.640625 -4.007812 5.515625 -2.75 7.265625 -2.75 C 8.148438 -2.75 8.804688 -3.054688 9.234375 -3.671875 C 9.671875 -4.285156 9.890625 -5.238281 9.890625 -6.53125 C 9.890625 -7.832031 9.671875 -8.789062 9.234375 -9.40625 C 8.796875 -10.03125 8.144531 -10.34375 7.28125 -10.34375 C 5.519531 -10.34375 4.640625 -9.070312 4.640625 -6.53125 Z M 4.640625 -6.53125 "/></g></g></g><g fill="#ffffff" fill-opacity="1"><g transform="translate(73.523356, 142.634559)"><g><path d="M 13.8125 0 L 9.203125 0 L 4.4375 -9.171875 L 4.359375 -9.171875 C 4.472656 -7.734375 4.53125 -6.632812 4.53125 -5.875 L 4.53125 0 L 1.40625 0 L 1.40625 -13.03125 L 6 -13.03125 L 10.75 -3.96875 L 10.796875 -3.96875 C 10.710938 -5.28125 10.671875 -6.335938 10.671875 -7.140625 L 10.671875 -13.03125 L 13.8125 -13.03125 Z M 13.8125 0 "/></g></g></g><g fill="#ffffff" fill-opacity="1"><g transform="translate(89.790966, 142.634559)"><g><path d="M 4.875 0 L 1.40625 0 L 1.40625 -13.03125 L 9.109375 -13.03125 L 9.109375 -10.203125 L 4.875 -10.203125 L 4.875 -7.71875 L 8.78125 -7.71875 L 8.78125 -4.890625 L 4.875 -4.890625 Z M 4.875 0 "/></g></g></g><g fill="#ffffff" fill-opacity="1"><g transform="translate(100.680083, 142.634559)"><g><path d="M 13.59375 -6.53125 C 13.59375 -4.34375 13.054688 -2.675781 11.984375 -1.53125 C 10.910156 -0.394531 9.335938 0.171875 7.265625 0.171875 C 5.222656 0.171875 3.65625 -0.398438 2.5625 -1.546875 C 1.46875 -2.691406 0.921875 -4.359375 0.921875 -6.546875 C 0.921875 -8.710938 1.460938 -10.367188 2.546875 -11.515625 C 3.628906 -12.660156 5.207031 -13.234375 7.28125 -13.234375 C 9.351562 -13.234375 10.921875 -12.664062 11.984375 -11.53125 C 13.054688 -10.394531 13.59375 -8.726562 13.59375 -6.53125 Z M 4.640625 -6.53125 C 4.640625 -4.007812 5.515625 -2.75 7.265625 -2.75 C 8.148438 -2.75 8.804688 -3.054688 9.234375 -3.671875 C 9.671875 -4.285156 9.890625 -5.238281 9.890625 -6.53125 C 9.890625 -7.832031 9.671875 -8.789062 9.234375 -9.40625 C 8.796875 -10.03125 8.144531 -10.34375 7.28125 -10.34375 C 5.519531 -10.34375 4.640625 -9.070312 4.640625 -6.53125 Z M 4.640625 -6.53125 "/></g></g></g><g fill="#ffffff" fill-opacity="1"><g transform="translate(116.270928, 142.634559)"><g><path d="M 4.921875 -4.734375 L 4.921875 0 L 1.40625 0 L 1.40625 -13.03125 L 5.671875 -13.03125 C 9.210938 -13.03125 10.984375 -11.742188 10.984375 -9.171875 C 10.984375 -7.671875 10.25 -6.503906 8.78125 -5.671875 L 12.578125 0 L 8.578125 0 L 5.8125 -4.734375 Z M 4.921875 -7.390625 L 5.59375 -7.390625 C 6.820312 -7.390625 7.4375 -7.929688 7.4375 -9.015625 C 7.4375 -9.910156 6.832031 -10.359375 5.625 -10.359375 L 4.921875 -10.359375 Z M 4.921875 -7.390625 "/></g></g></g><g fill="#ffffff" fill-opacity="1"><g transform="translate(129.671195, 142.634559)"><g><path d="M 6.640625 -7.625 L 12.265625 -7.625 L 12.265625 -0.609375 C 10.734375 -0.0859375 9.054688 0.171875 7.234375 0.171875 C 5.222656 0.171875 3.664062 -0.40625 2.5625 -1.5625 C 1.46875 -2.726562 0.921875 -4.390625 0.921875 -6.546875 C 0.921875 -8.648438 1.519531 -10.285156 2.71875 -11.453125 C 3.925781 -12.628906 5.609375 -13.21875 7.765625 -13.21875 C 8.585938 -13.21875 9.363281 -13.140625 10.09375 -12.984375 C 10.820312 -12.828125 11.457031 -12.628906 12 -12.390625 L 10.875 -9.640625 C 9.9375 -10.097656 8.90625 -10.328125 7.78125 -10.328125 C 6.757812 -10.328125 5.96875 -9.992188 5.40625 -9.328125 C 4.84375 -8.660156 4.5625 -7.703125 4.5625 -6.453125 C 4.5625 -5.242188 4.816406 -4.316406 5.328125 -3.671875 C 5.835938 -3.035156 6.566406 -2.71875 7.515625 -2.71875 C 8.046875 -2.71875 8.53125 -2.769531 8.96875 -2.875 L 8.96875 -4.90625 L 6.640625 -4.90625 Z M 6.640625 -7.625 "/></g></g></g><g fill="#ffffff" fill-opacity="1"><g transform="translate(144.229085, 142.634559)"><g><path d="M 9.140625 0 L 1.40625 0 L 1.40625 -13.03125 L 9.140625 -13.03125 L 9.140625 -10.203125 L 4.921875 -10.203125 L 4.921875 -8.15625 L 8.828125 -8.15625 L 8.828125 -5.328125 L 4.921875 -5.328125 L 4.921875 -2.875 L 9.140625 -2.875 Z M 9.140625 0 "/></g></g></g><g fill="#ffffff" fill-opacity="1"><g transform="translate(155.296298, 142.634559)"><g><path d="M 13.8125 0 L 9.203125 0 L 4.4375 -9.171875 L 4.359375 -9.171875 C 4.472656 -7.734375 4.53125 -6.632812 4.53125 -5.875 L 4.53125 0 L 1.40625 0 L 1.40625 -13.03125 L 6 -13.03125 L 10.75 -3.96875 L 10.796875 -3.96875 C 10.710938 -5.28125 10.671875 -6.335938 10.671875 -7.140625 L 10.671875 -13.03125 L 13.8125 -13.03125 Z M 13.8125 0 "/></g></g></g><g fill="#ffffff" fill-opacity="1"><g transform="translate(171.563907, 142.634559)"><g><path d="M 9.140625 0 L 1.40625 0 L 1.40625 -13.03125 L 9.140625 -13.03125 L 9.140625 -10.203125 L 4.921875 -10.203125 L 4.921875 -8.15625 L 8.828125 -8.15625 L 8.828125 -5.328125 L 4.921875 -5.328125 L 4.921875 -2.875 L 9.140625 -2.875 Z M 9.140625 0 "/></g></g></g><g fill="#ffffff" fill-opacity="1"><g transform="translate(182.63112, 142.634559)"><g><path d="M 13.140625 0 L 9.078125 0 L 6.53125 -4.078125 L 4.015625 0 L 0.03125 0 L 4.359375 -6.671875 L 0.296875 -13.03125 L 4.203125 -13.03125 L 6.546875 -9 L 8.8125 -13.03125 L 12.828125 -13.03125 L 8.703125 -6.390625 Z M 13.140625 0 "/></g></g></g><g fill="#ffffff" fill-opacity="1"><g transform="translate(196.877349, 142.634559)"><g><path d="M 12.484375 -13.03125 L 12.484375 -5.1875 C 12.484375 -3.476562 12 -2.15625 11.03125 -1.21875 C 10.070312 -0.289062 8.679688 0.171875 6.859375 0.171875 C 5.085938 0.171875 3.722656 -0.28125 2.765625 -1.1875 C 1.816406 -2.09375 1.34375 -3.398438 1.34375 -5.109375 L 1.34375 -13.03125 L 4.875 -13.03125 L 4.875 -5.375 C 4.875 -4.457031 5.046875 -3.789062 5.390625 -3.375 C 5.734375 -2.957031 6.242188 -2.75 6.921875 -2.75 C 7.640625 -2.75 8.160156 -2.957031 8.484375 -3.375 C 8.804688 -3.789062 8.96875 -4.46875 8.96875 -5.40625 L 8.96875 -13.03125 Z M 12.484375 -13.03125 "/></g></g></g><g fill="#ffffff" fill-opacity="1"><g transform="translate(211.738002, 142.634559)"><g><path d="M 9.921875 -3.953125 C 9.921875 -3.148438 9.71875 -2.429688 9.3125 -1.796875 C 8.90625 -1.171875 8.3125 -0.6875 7.53125 -0.34375 C 6.757812 0 5.859375 0.171875 4.828125 0.171875 C 3.953125 0.171875 3.21875 0.113281 2.625 0 C 2.039062 -0.125 1.429688 -0.335938 0.796875 -0.640625 L 0.796875 -3.78125 C 1.472656 -3.4375 2.171875 -3.164062 2.890625 -2.96875 C 3.617188 -2.78125 4.285156 -2.6875 4.890625 -2.6875 C 5.410156 -2.6875 5.789062 -2.773438 6.03125 -2.953125 C 6.28125 -3.128906 6.40625 -3.363281 6.40625 -3.65625 C 6.40625 -3.832031 6.351562 -3.988281 6.25 -4.125 C 6.15625 -4.257812 6 -4.394531 5.78125 -4.53125 C 5.570312 -4.664062 4.992188 -4.941406 4.046875 -5.359375 C 3.203125 -5.742188 2.566406 -6.117188 2.140625 -6.484375 C 1.710938 -6.847656 1.394531 -7.265625 1.1875 -7.734375 C 0.988281 -8.203125 0.890625 -8.757812 0.890625 -9.40625 C 0.890625 -10.601562 1.328125 -11.535156 2.203125 -12.203125 C 3.078125 -12.878906 4.273438 -13.21875 5.796875 -13.21875 C 7.148438 -13.21875 8.523438 -12.90625 9.921875 -12.28125 L 8.84375 -9.5625 C 7.625 -10.125 6.570312 -10.40625 5.6875 -10.40625 C 5.238281 -10.40625 4.910156 -10.320312 4.703125 -10.15625 C 4.492188 -10 4.390625 -9.800781 4.390625 -9.5625 C 4.390625 -9.300781 4.519531 -9.070312 4.78125 -8.875 C 5.039062 -8.675781 5.757812 -8.304688 6.9375 -7.765625 C 8.050781 -7.265625 8.828125 -6.722656 9.265625 -6.140625 C 9.703125 -5.566406 9.921875 -4.835938 9.921875 -3.953125 Z M 9.921875 -3.953125 "/></g></g></g></svg>