<svg xmlns="http://www.w3.org/2000/svg" xmlns:xlink="http://www.w3.org/1999/xlink" width="500" zoomAndPan="magnify" viewBox="0 0 375 374.999991" height="500" preserveAspectRatio="xMidYMid meet" version="1.0"><defs><g/><clipPath id="3167f026de"><path d="M 126.714844 95.855469 L 248.214844 95.855469 L 248.214844 224 L 126.714844 224 Z M 126.714844 95.855469 " clip-rule="nonzero"/></clipPath></defs><rect x="-37.5" width="450" fill="#ffffff" y="-37.499999" height="449.999989" fill-opacity="1"/><rect x="-37.5" width="450" fill="#ffffff" y="-37.499999" height="449.999989" fill-opacity="1"/><g clip-path="url(#3167f026de)"><path fill="#92400e" d="M 147.339844 196.457031 C 149.132812 194.28125 151.640625 192.875 154.25 192.335938 C 151.488281 201.984375 152.664062 209.636719 156.195312 215.1875 C 138.539062 204.570312 126.742188 185.195312 126.742188 163.109375 C 126.742188 130.507812 152.410156 103.917969 184.652344 102.433594 C 180.226562 105.761719 173.878906 108.140625 170.5 110.902344 C 164.15625 116.074219 164.972656 119.988281 165.101562 123.164062 C 161.339844 126.308594 159.421875 131.070312 159.828125 135.90625 C 157.066406 142.175781 152.332031 142.433594 152.304688 137.570312 C 148.59375 143.480469 147.851562 148.140625 149.183594 154.589844 C 154.917969 156.867188 160.058594 156.917969 165.511719 155.40625 C 160.855469 154.589844 160.214844 150.238281 167.378906 150.390625 C 171.140625 150.46875 174.722656 151.109375 177.230469 147.910156 C 172.140625 147.601562 171.910156 142.816406 178.539062 142.328125 C 190.769531 141.433594 192.867188 132.246094 180.867188 132.015625 C 201.339844 123.929688 208.660156 134.21875 195.8125 147.371094 C 189.363281 153.949219 179.28125 159.21875 169.964844 165.515625 C 166.382812 165.386719 163.335938 164.160156 161.082031 161.421875 C 156.171875 165.746094 147.109375 166.898438 150.769531 159.859375 C 146.242188 159.527344 143.195312 161.113281 140.996094 163.75 C 146.703125 162.648438 147.546875 165.542969 150.386719 166.871094 C 148.363281 168.40625 145.191406 168.917969 143.296875 165.234375 C 139.894531 167.332031 138.230469 170.738281 137.921875 175.113281 C 142.554688 167.894531 145.933594 171.453125 149.617188 170.328125 C 148.3125 171.683594 146.648438 172.707031 144.347656 173.140625 C 143.910156 177.339844 145.140625 179.695312 147.058594 181.28125 C 146.933594 172.476562 155.273438 168.742188 164.105469 169.816406 C 155.53125 176.445312 148.621094 184.632812 147.339844 196.457031 Z M 152.972656 149.929688 C 155.503906 146.117188 157.886719 146.21875 158.804688 147.242188 C 158.292969 140.71875 155.019531 142.023438 152.972656 149.929688 Z M 177.054688 111.953125 C 172.265625 113.949219 168.863281 117.761719 169.785156 123.339844 C 173.777344 113.003906 184.089844 113.105469 192.332031 108.675781 C 194.738281 107.371094 197.246094 105.605469 199.472656 103.558594 C 196.246094 102.894531 193.023438 102.535156 189.746094 102.40625 C 190.003906 100.335938 189.722656 98.492188 188.980469 96.855469 C 189.183594 98.976562 188.132812 100.921875 186.574219 102.714844 C 183.554688 106.015625 178.84375 108.933594 177.054688 111.953125 Z M 163.335938 135.828125 C 165.128906 134.5 167.609375 134.804688 169.195312 133.527344 C 170.21875 132.707031 170.144531 130.53125 171.140625 129.558594 C 169.605469 130.789062 166.894531 130.457031 165.359375 131.683594 C 164.308594 132.554688 164.105469 134.523438 163.335938 135.828125 Z M 205.894531 105.195312 C 206.277344 101.589844 206.023438 98.441406 205.023438 95.855469 C 204.71875 99.207031 203.566406 101.921875 201.929688 104.25 C 195.09375 113.617188 180.199219 116.226562 180.765625 127.128906 C 183.707031 124.492188 186.855469 121.960938 190.539062 119.757812 C 188.058594 120.5 185.675781 121.449219 183.375 122.597656 C 183.605469 121.78125 183.988281 121.011719 184.5 120.296875 C 190.566406 116.789062 198.0625 114.769531 205.382812 115.332031 C 198.011719 117.328125 198.394531 123.035156 206.867188 122.957031 C 213.136719 122.878906 218.972656 120.859375 225.140625 125.003906 C 219.382812 124.417969 214.648438 128.484375 222.296875 135.214844 C 227.953125 140.15625 232.894531 144.8125 229.464844 155.507812 C 227.1875 148.34375 221.273438 147.652344 219.816406 157.53125 C 218.996094 163.035156 218.691406 168.996094 212.703125 173.730469 C 213.519531 169.996094 213.085938 167.382812 210.730469 165.105469 C 216.464844 157.148438 218.921875 144.328125 212.085938 136.1875 C 216.183594 147.039062 212.140625 158.707031 205.023438 165.949219 C 198.21875 172.859375 189.464844 178.3125 182.425781 184.992188 C 156.402344 209.609375 181.453125 223.148438 199.417969 208.203125 C 178.027344 217.925781 173.46875 203.417969 181.53125 195.125 C 184.039062 202.878906 193.917969 199.246094 199.703125 194.972656 C 206.304688 190.082031 214.1875 178.953125 220.355469 173.269531 C 229.4375 164.953125 242.386719 167.28125 244.640625 183.789062 C 246.96875 177.339844 248.25 170.378906 248.25 163.136719 C 248.25 136.625 231.128906 113.257812 205.894531 105.195312 Z M 174.109375 181.101562 C 188.007812 167.027344 207.917969 161.675781 206.714844 142.175781 C 201.722656 161.523438 167.636719 169.917969 159.703125 186.882812 C 161.109375 186.320312 162.492188 185.988281 163.898438 185.808594 C 157.65625 193.898438 158.804688 207.921875 167.941406 213.421875 C 162.902344 207.128906 161.597656 193.769531 174.109375 181.101562 Z M 219.714844 191.617188 C 215.566406 199.550781 211.550781 206.921875 205.5625 213.601562 C 201.238281 218.4375 195.886719 221.816406 190.308594 223.8125 C 209.988281 222.917969 227.238281 212.628906 237.703125 197.351562 C 236.21875 194.945312 234.148438 194.152344 231.230469 195.867188 C 232.355469 192.15625 236.269531 190.238281 240.390625 193.027344 C 241.800781 193.949219 243.207031 195.433594 244.539062 197.582031 C 244.664062 194.640625 243.921875 191.515625 242.59375 188.753906 C 238.394531 180.152344 228.210938 175.367188 219.714844 191.617188 Z M 219.714844 191.617188 " fill-opacity="1" fill-rule="evenodd"/></g><g fill="#92400e" fill-opacity="1"><g transform="translate(47.879433, 255.74471)"><g><path d="M 22.75 -12.390625 C 22.75 -8.421875 21.65625 -5.363281 19.46875 -3.21875 C 17.28125 -1.070312 14.210938 0 10.265625 0 L 2.5625 0 L 2.5625 -23.765625 L 10.796875 -23.765625 C 14.609375 -23.765625 17.550781 -22.789062 19.625 -20.84375 C 21.707031 -18.894531 22.75 -16.078125 22.75 -12.390625 Z M 16.078125 -12.15625 C 16.078125 -14.332031 15.644531 -15.945312 14.78125 -17 C 13.925781 -18.050781 12.617188 -18.578125 10.859375 -18.578125 L 8.984375 -18.578125 L 8.984375 -5.265625 L 10.421875 -5.265625 C 12.367188 -5.265625 13.796875 -5.832031 14.703125 -6.96875 C 15.617188 -8.101562 16.078125 -9.832031 16.078125 -12.15625 Z M 16.078125 -12.15625 "/></g></g></g><g fill="#92400e" fill-opacity="1"><g transform="translate(74.235473, 255.74471)"><g><path d="M 8.984375 -8.65625 L 8.984375 0 L 2.5625 0 L 2.5625 -23.765625 L 10.359375 -23.765625 C 16.816406 -23.765625 20.046875 -21.425781 20.046875 -16.75 C 20.046875 -13.988281 18.703125 -11.859375 16.015625 -10.359375 L 22.9375 0 L 15.65625 0 L 10.609375 -8.65625 Z M 8.984375 -13.484375 L 10.1875 -13.484375 C 12.4375 -13.484375 13.5625 -14.472656 13.5625 -16.453125 C 13.5625 -18.085938 12.460938 -18.90625 10.265625 -18.90625 L 8.984375 -18.90625 Z M 8.984375 -13.484375 "/></g></g></g><g fill="#92400e" fill-opacity="1"><g transform="translate(98.690191, 255.74471)"><g><path d="M 17.15625 0 L 15.984375 -4.453125 L 8.265625 -4.453125 L 7.0625 0 L 0 0 L 7.75 -23.859375 L 16.328125 -23.859375 L 24.171875 0 Z M 14.65625 -9.71875 L 13.625 -13.625 C 13.382812 -14.488281 13.09375 -15.609375 12.75 -16.984375 C 12.414062 -18.359375 12.191406 -19.347656 12.078125 -19.953125 C 11.984375 -19.398438 11.789062 -18.488281 11.5 -17.21875 C 11.21875 -15.945312 10.582031 -13.445312 9.59375 -9.71875 Z M 14.65625 -9.71875 "/></g></g></g><g fill="#92400e" fill-opacity="1"><g transform="translate(124.78622, 255.74471)"><g><path d="M 12.109375 -13.921875 L 22.375 -13.921875 L 22.375 -1.109375 C 19.582031 -0.148438 16.519531 0.328125 13.1875 0.328125 C 9.519531 0.328125 6.6875 -0.734375 4.6875 -2.859375 C 2.6875 -4.984375 1.6875 -8.015625 1.6875 -11.953125 C 1.6875 -15.785156 2.78125 -18.769531 4.96875 -20.90625 C 7.164062 -23.039062 10.234375 -24.109375 14.171875 -24.109375 C 15.671875 -24.109375 17.082031 -23.96875 18.40625 -23.6875 C 19.738281 -23.40625 20.898438 -23.046875 21.890625 -22.609375 L 19.84375 -17.578125 C 18.132812 -18.421875 16.253906 -18.84375 14.203125 -18.84375 C 12.328125 -18.84375 10.878906 -18.234375 9.859375 -17.015625 C 8.835938 -15.796875 8.328125 -14.050781 8.328125 -11.78125 C 8.328125 -9.5625 8.789062 -7.867188 9.71875 -6.703125 C 10.644531 -5.535156 11.976562 -4.953125 13.71875 -4.953125 C 14.675781 -4.953125 15.554688 -5.046875 16.359375 -5.234375 L 16.359375 -8.953125 L 12.109375 -8.953125 Z M 12.109375 -13.921875 "/></g></g></g><g fill="#92400e" fill-opacity="1"><g transform="translate(151.353517, 255.74471)"><g><path d="M 24.8125 -11.921875 C 24.8125 -7.921875 23.828125 -4.878906 21.859375 -2.796875 C 19.898438 -0.710938 17.03125 0.328125 13.25 0.328125 C 9.519531 0.328125 6.660156 -0.71875 4.671875 -2.8125 C 2.679688 -4.90625 1.6875 -7.953125 1.6875 -11.953125 C 1.6875 -15.910156 2.675781 -18.929688 4.65625 -21.015625 C 6.632812 -23.097656 9.507812 -24.140625 13.28125 -24.140625 C 17.0625 -24.140625 19.925781 -23.101562 21.875 -21.03125 C 23.832031 -18.96875 24.8125 -15.929688 24.8125 -11.921875 Z M 8.453125 -11.921875 C 8.453125 -7.328125 10.050781 -5.03125 13.25 -5.03125 C 14.875 -5.03125 16.078125 -5.585938 16.859375 -6.703125 C 17.648438 -7.816406 18.046875 -9.554688 18.046875 -11.921875 C 18.046875 -14.296875 17.644531 -16.046875 16.84375 -17.171875 C 16.050781 -18.304688 14.863281 -18.875 13.28125 -18.875 C 10.0625 -18.875 8.453125 -16.554688 8.453125 -11.921875 Z M 8.453125 -11.921875 "/></g></g></g><g fill="#92400e" fill-opacity="1"><g transform="translate(179.805885, 255.74471)"><g><path d="M 25.203125 0 L 16.78125 0 L 8.09375 -16.75 L 7.953125 -16.75 C 8.160156 -14.113281 8.265625 -12.101562 8.265625 -10.71875 L 8.265625 0 L 2.5625 0 L 2.5625 -23.765625 L 10.953125 -23.765625 L 19.609375 -7.25 L 19.703125 -7.25 C 19.554688 -9.644531 19.484375 -11.566406 19.484375 -13.015625 L 19.484375 -23.765625 L 25.203125 -23.765625 Z M 25.203125 0 "/></g></g></g><g fill="#92400e" fill-opacity="1"><g transform="translate(209.493299, 255.74471)"><g><path d="M 8.890625 0 L 2.5625 0 L 2.5625 -23.765625 L 16.609375 -23.765625 L 16.609375 -18.609375 L 8.890625 -18.609375 L 8.890625 -14.078125 L 16.015625 -14.078125 L 16.015625 -8.921875 L 8.890625 -8.921875 Z M 8.890625 0 "/></g></g></g><g fill="#92400e" fill-opacity="1"><g transform="translate(229.365345, 255.74471)"><g><path d="M 24.8125 -11.921875 C 24.8125 -7.921875 23.828125 -4.878906 21.859375 -2.796875 C 19.898438 -0.710938 17.03125 0.328125 13.25 0.328125 C 9.519531 0.328125 6.660156 -0.71875 4.671875 -2.8125 C 2.679688 -4.90625 1.6875 -7.953125 1.6875 -11.953125 C 1.6875 -15.910156 2.675781 -18.929688 4.65625 -21.015625 C 6.632812 -23.097656 9.507812 -24.140625 13.28125 -24.140625 C 17.0625 -24.140625 19.925781 -23.101562 21.875 -21.03125 C 23.832031 -18.96875 24.8125 -15.929688 24.8125 -11.921875 Z M 8.453125 -11.921875 C 8.453125 -7.328125 10.050781 -5.03125 13.25 -5.03125 C 14.875 -5.03125 16.078125 -5.585938 16.859375 -6.703125 C 17.648438 -7.816406 18.046875 -9.554688 18.046875 -11.921875 C 18.046875 -14.296875 17.644531 -16.046875 16.84375 -17.171875 C 16.050781 -18.304688 14.863281 -18.875 13.28125 -18.875 C 10.0625 -18.875 8.453125 -16.554688 8.453125 -11.921875 Z M 8.453125 -11.921875 "/></g></g></g><g fill="#92400e" fill-opacity="1"><g transform="translate(257.817713, 255.74471)"><g><path d="M 8.984375 -8.65625 L 8.984375 0 L 2.5625 0 L 2.5625 -23.765625 L 10.359375 -23.765625 C 16.816406 -23.765625 20.046875 -21.425781 20.046875 -16.75 C 20.046875 -13.988281 18.703125 -11.859375 16.015625 -10.359375 L 22.9375 0 L 15.65625 0 L 10.609375 -8.65625 Z M 8.984375 -13.484375 L 10.1875 -13.484375 C 12.4375 -13.484375 13.5625 -14.472656 13.5625 -16.453125 C 13.5625 -18.085938 12.460938 -18.90625 10.265625 -18.90625 L 8.984375 -18.90625 Z M 8.984375 -13.484375 "/></g></g></g><g fill="#92400e" fill-opacity="1"><g transform="translate(282.272431, 255.74471)"><g><path d="M 12.109375 -13.921875 L 22.375 -13.921875 L 22.375 -1.109375 C 19.582031 -0.148438 16.519531 0.328125 13.1875 0.328125 C 9.519531 0.328125 6.6875 -0.734375 4.6875 -2.859375 C 2.6875 -4.984375 1.6875 -8.015625 1.6875 -11.953125 C 1.6875 -15.785156 2.78125 -18.769531 4.96875 -20.90625 C 7.164062 -23.039062 10.234375 -24.109375 14.171875 -24.109375 C 15.671875 -24.109375 17.082031 -23.96875 18.40625 -23.6875 C 19.738281 -23.40625 20.898438 -23.046875 21.890625 -22.609375 L 19.84375 -17.578125 C 18.132812 -18.421875 16.253906 -18.84375 14.203125 -18.84375 C 12.328125 -18.84375 10.878906 -18.234375 9.859375 -17.015625 C 8.835938 -15.796875 8.328125 -14.050781 8.328125 -11.78125 C 8.328125 -9.5625 8.789062 -7.867188 9.71875 -6.703125 C 10.644531 -5.535156 11.976562 -4.953125 13.71875 -4.953125 C 14.675781 -4.953125 15.554688 -5.046875 16.359375 -5.234375 L 16.359375 -8.953125 L 12.109375 -8.953125 Z M 12.109375 -13.921875 "/></g></g></g><g fill="#92400e" fill-opacity="1"><g transform="translate(308.839728, 255.74471)"><g><path d="M 16.6875 0 L 2.5625 0 L 2.5625 -23.765625 L 16.6875 -23.765625 L 16.6875 -18.609375 L 8.984375 -18.609375 L 8.984375 -14.875 L 16.109375 -14.875 L 16.109375 -9.71875 L 8.984375 -9.71875 L 8.984375 -5.234375 L 16.6875 -5.234375 Z M 16.6875 0 "/></g></g></g><g fill="#92400e" fill-opacity="1"><g transform="translate(95.609899, 302.244707)"><g><path d="M 25.203125 0 L 16.78125 0 L 8.09375 -16.75 L 7.953125 -16.75 C 8.160156 -14.113281 8.265625 -12.101562 8.265625 -10.71875 L 8.265625 0 L 2.5625 0 L 2.5625 -23.765625 L 10.953125 -23.765625 L 19.609375 -7.25 L 19.703125 -7.25 C 19.554688 -9.644531 19.484375 -11.566406 19.484375 -13.015625 L 19.484375 -23.765625 L 25.203125 -23.765625 Z M 25.203125 0 "/></g></g></g><g fill="#92400e" fill-opacity="1"><g transform="translate(125.297313, 302.244707)"><g><path d="M 16.6875 0 L 2.5625 0 L 2.5625 -23.765625 L 16.6875 -23.765625 L 16.6875 -18.609375 L 8.984375 -18.609375 L 8.984375 -14.875 L 16.109375 -14.875 L 16.109375 -9.71875 L 8.984375 -9.71875 L 8.984375 -5.234375 L 16.6875 -5.234375 Z M 16.6875 0 "/></g></g></g><g fill="#92400e" fill-opacity="1"><g transform="translate(145.494371, 302.244707)"><g><path d="M 13.0625 0 L 6.640625 0 L 6.640625 -18.515625 L 0.828125 -18.515625 L 0.828125 -23.765625 L 18.84375 -23.765625 L 18.84375 -18.515625 L 13.0625 -18.515625 Z M 13.0625 0 "/></g></g></g><g fill="#92400e" fill-opacity="1"><g transform="translate(167.088982, 302.244707)"><g><path d="M 28.234375 0 L 20.640625 0 L 18.375 -10.359375 C 18.257812 -10.785156 18.085938 -11.644531 17.859375 -12.9375 C 17.628906 -14.226562 17.457031 -15.304688 17.34375 -16.171875 C 17.257812 -15.472656 17.117188 -14.597656 16.921875 -13.546875 C 16.722656 -12.503906 16.53125 -11.539062 16.34375 -10.65625 C 16.15625 -9.78125 15.367188 -6.226562 13.984375 0 L 6.390625 0 L 0.5 -23.765625 L 6.703125 -23.765625 L 9.28125 -11.859375 C 9.863281 -9.222656 10.265625 -7.125 10.484375 -5.5625 C 10.628906 -6.664062 10.878906 -8.164062 11.234375 -10.0625 C 11.597656 -11.957031 11.941406 -13.53125 12.265625 -14.78125 L 14.359375 -23.765625 L 20.3125 -23.765625 L 22.34375 -14.78125 C 22.6875 -13.332031 23.035156 -11.664062 23.390625 -9.78125 C 23.753906 -7.894531 23.992188 -6.488281 24.109375 -5.5625 C 24.253906 -6.757812 24.640625 -8.84375 25.265625 -11.8125 L 27.90625 -23.765625 L 34.09375 -23.765625 Z M 28.234375 0 "/></g></g></g><g fill="#92400e" fill-opacity="1"><g transform="translate(203.601652, 302.244707)"><g><path d="M 24.8125 -11.921875 C 24.8125 -7.921875 23.828125 -4.878906 21.859375 -2.796875 C 19.898438 -0.710938 17.03125 0.328125 13.25 0.328125 C 9.519531 0.328125 6.660156 -0.71875 4.671875 -2.8125 C 2.679688 -4.90625 1.6875 -7.953125 1.6875 -11.953125 C 1.6875 -15.910156 2.675781 -18.929688 4.65625 -21.015625 C 6.632812 -23.097656 9.507812 -24.140625 13.28125 -24.140625 C 17.0625 -24.140625 19.925781 -23.101562 21.875 -21.03125 C 23.832031 -18.96875 24.8125 -15.929688 24.8125 -11.921875 Z M 8.453125 -11.921875 C 8.453125 -7.328125 10.050781 -5.03125 13.25 -5.03125 C 14.875 -5.03125 16.078125 -5.585938 16.859375 -6.703125 C 17.648438 -7.816406 18.046875 -9.554688 18.046875 -11.921875 C 18.046875 -14.296875 17.644531 -16.046875 16.84375 -17.171875 C 16.050781 -18.304688 14.863281 -18.875 13.28125 -18.875 C 10.0625 -18.875 8.453125 -16.554688 8.453125 -11.921875 Z M 8.453125 -11.921875 "/></g></g></g><g fill="#92400e" fill-opacity="1"><g transform="translate(232.054019, 302.244707)"><g><path d="M 8.984375 -8.65625 L 8.984375 0 L 2.5625 0 L 2.5625 -23.765625 L 10.359375 -23.765625 C 16.816406 -23.765625 20.046875 -21.425781 20.046875 -16.75 C 20.046875 -13.988281 18.703125 -11.859375 16.015625 -10.359375 L 22.9375 0 L 15.65625 0 L 10.609375 -8.65625 Z M 8.984375 -13.484375 L 10.1875 -13.484375 C 12.4375 -13.484375 13.5625 -14.472656 13.5625 -16.453125 C 13.5625 -18.085938 12.460938 -18.90625 10.265625 -18.90625 L 8.984375 -18.90625 Z M 8.984375 -13.484375 "/></g></g></g><g fill="#92400e" fill-opacity="1"><g transform="translate(256.508738, 302.244707)"><g><path d="M 22.875 0 L 15.625 0 L 10.921875 -9.09375 L 9.015625 -7.953125 L 9.015625 0 L 2.5625 0 L 2.5625 -23.765625 L 9.015625 -23.765625 L 9.015625 -13.453125 C 9.347656 -14.085938 10.003906 -15.097656 10.984375 -16.484375 L 15.984375 -23.765625 L 23 -23.765625 L 15.515625 -13.125 Z M 22.875 0 "/></g></g></g></svg>